<?xml version="1.0" encoding="UTF-8"?>
<!DOCTYPE svg PUBLIC "-//W3C//DTD SVG 1.1//EN" "http://www.w3.org/Graphics/SVG/1.1/DTD/svg11.dtd">
<svg xmlns="http://www.w3.org/2000/svg" version="1.1" width="200px" height="200px" style="shape-rendering:geometricPrecision; text-rendering:geometricPrecision; image-rendering:optimizeQuality; fill-rule:evenodd; clip-rule:evenodd" xmlns:xlink="http://www.w3.org/1999/xlink">
<g><path style="opacity:1" fill="#6e1139" d="M 122.5,1.5 C 129.834,2.83354 136.834,5.16687 143.5,8.5C 143.719,9.67504 143.386,10.675 142.5,11.5C 140.591,10.6518 138.591,10.3184 136.5,10.5C 136.33,11.8221 136.663,12.9887 137.5,14C 135.564,14.813 133.564,15.313 131.5,15.5C 127.593,15.6183 123.593,14.9516 119.5,13.5C 118.817,13.8627 118.15,14.1961 117.5,14.5C 117.351,13.448 117.517,12.448 118,11.5C 118.889,12.8882 119.389,12.7215 119.5,11C 118.813,9.83824 118.647,8.67157 119,7.5C 119.414,7.95735 119.914,8.29069 120.5,8.5C 121.59,7.27296 122.924,6.43963 124.5,6C 122.963,4.89037 122.297,3.39037 122.5,1.5 Z"/></g>
<g><path style="opacity:1" fill="#7e133d" d="M 100.5,-0.5 C 105.5,-0.5 110.5,-0.5 115.5,-0.5C 117.715,0.2679 120.048,0.934566 122.5,1.5C 122.297,3.39037 122.963,4.89037 124.5,6C 122.924,6.43963 121.59,7.27296 120.5,8.5C 119.914,8.29069 119.414,7.95735 119,7.5C 118.647,8.67157 118.813,9.83824 119.5,11C 119.389,12.7215 118.889,12.8882 118,11.5C 117.517,12.448 117.351,13.448 117.5,14.5C 116.472,15.0736 115.472,15.407 114.5,15.5C 117.411,19.6116 118.078,23.9449 116.5,28.5C 114.423,29.5234 112.423,29.19 110.5,27.5C 107.272,28.4137 103.939,28.7471 100.5,28.5C 99.0582,27.1805 98.3915,25.5138 98.5,23.5C 99.8195,22.0582 101.486,21.3915 103.5,21.5C 104.192,17.2795 103.192,13.6128 100.5,10.5C 100.709,9.91395 101.043,9.41395 101.5,9C 96.1696,5.70112 96.6696,4.86779 103,6.5C 103.75,5.87424 104.584,5.37424 105.5,5C 104.157,2.76782 102.49,0.934485 100.5,-0.5 Z"/></g>
<g><path style="opacity:1" fill="#8f143e" d="M 83.5,-0.5 C 89.1667,-0.5 94.8333,-0.5 100.5,-0.5C 102.49,0.934485 104.157,2.76782 105.5,5C 104.584,5.37424 103.75,5.87424 103,6.5C 96.6696,4.86779 96.1696,5.70112 101.5,9C 101.043,9.41395 100.709,9.91395 100.5,10.5C 103.192,13.6128 104.192,17.2795 103.5,21.5C 101.486,21.3915 99.8195,22.0582 98.5,23.5C 97.4168,23.5394 96.4168,23.8728 95.5,24.5C 94.7193,23.2634 93.7193,22.2634 92.5,21.5C 90.3894,22.9488 88.0561,23.9488 85.5,24.5C 84.8076,23.9747 84.3076,23.3081 84,22.5C 82.8869,23.7111 81.7202,23.7111 80.5,22.5C 78.4414,23.567 76.608,24.9004 75,26.5C 73.9148,25.7069 72.7481,25.0402 71.5,24.5C 68.5164,25.2746 65.5164,25.9413 62.5,26.5C 59.8752,25.0761 57.5419,25.4094 55.5,27.5C 54.8333,27.8333 54.1667,28.1667 53.5,28.5C 53.7031,26.9557 54.3698,25.6223 55.5,24.5C 54.9747,23.8076 54.3081,23.3076 53.5,23C 56.6467,21.5799 59.8134,21.4132 63,22.5C 64.0588,22.3699 64.8921,21.8699 65.5,21C 60.1676,19.4277 60.3342,18.2611 66,17.5C 66.3095,16.2341 66.8095,15.0674 67.5,14C 67.1667,13.6667 66.8333,13.3333 66.5,13C 69.275,12.2217 71.775,12.7217 74,14.5C 74.5,14.1667 75,13.8333 75.5,13.5C 74.229,13.8745 73.0623,13.2078 72,11.5C 71.171,6.66834 68.3377,4.66834 63.5,5.5C 69.9109,2.61861 76.5775,0.618609 83.5,-0.5 Z"/></g>
<g><path style="opacity:1" fill="#761644" d="M 131.5,15.5 C 132.09,17.0972 133.09,18.4305 134.5,19.5C 133.624,20.2508 132.624,20.7508 131.5,21C 133.246,21.4709 134.913,22.1376 136.5,23C 137.833,23.6667 137.833,24.3333 136.5,25C 138.744,25.0496 140.411,25.8829 141.5,27.5C 137.442,26.7658 133.776,27.7658 130.5,30.5C 128.668,31.2485 127.001,32.2485 125.5,33.5C 124.962,31.8828 124.629,30.2161 124.5,28.5C 121.833,27.1667 119.167,27.1667 116.5,28.5C 118.078,23.9449 117.411,19.6116 114.5,15.5C 115.472,15.407 116.472,15.0736 117.5,14.5C 118.15,14.1961 118.817,13.8627 119.5,13.5C 123.593,14.9516 127.593,15.6183 131.5,15.5 Z"/></g>
<g><path style="opacity:1" fill="#651542" d="M 143.5,8.5 C 152.557,12.6934 160.557,18.36 167.5,25.5C 163.932,25.0875 160.265,25.5875 156.5,27C 158.677,28.1861 159.677,30.0194 159.5,32.5C 157.54,31.8617 155.707,31.8617 154,32.5C 152.507,30.4402 150.674,30.1068 148.5,31.5C 149.313,32.8139 150.313,33.9805 151.5,35C 149.598,36.3938 149.265,38.2271 150.5,40.5C 149.728,39.3065 148.728,38.3065 147.5,37.5C 147.155,34.8021 145.822,32.8021 143.5,31.5C 143.267,29.9382 142.6,28.6049 141.5,27.5C 140.411,25.8829 138.744,25.0496 136.5,25C 137.833,24.3333 137.833,23.6667 136.5,23C 134.913,22.1376 133.246,21.4709 131.5,21C 132.624,20.7508 133.624,20.2508 134.5,19.5C 133.09,18.4305 132.09,17.0972 131.5,15.5C 133.564,15.313 135.564,14.813 137.5,14C 136.663,12.9887 136.33,11.8221 136.5,10.5C 138.591,10.3184 140.591,10.6518 142.5,11.5C 143.386,10.675 143.719,9.67504 143.5,8.5 Z"/></g>
<g><path style="opacity:0.981" fill="#9d143f" d="M 63.5,5.5 C 68.3377,4.66834 71.171,6.66834 72,11.5C 73.0623,13.2078 74.229,13.8745 75.5,13.5C 75,13.8333 74.5,14.1667 74,14.5C 71.775,12.7217 69.275,12.2217 66.5,13C 66.8333,13.3333 67.1667,13.6667 67.5,14C 66.8095,15.0674 66.3095,16.2341 66,17.5C 60.3342,18.2611 60.1676,19.4277 65.5,21C 64.8921,21.8699 64.0588,22.3699 63,22.5C 59.8134,21.4132 56.6467,21.5799 53.5,23C 54.3081,23.3076 54.9747,23.8076 55.5,24.5C 54.3698,25.6223 53.7031,26.9557 53.5,28.5C 51.5,30.5 49.5,32.5 47.5,34.5C 44.8468,36.6369 42.0134,38.6369 39,40.5C 38.3878,37.9683 36.8878,37.1349 34.5,38C 33.287,40.6865 32.6203,43.5198 32.5,46.5C 31.1667,46.5 29.8333,46.5 28.5,46.5C 28.67,47.8221 28.3366,48.9887 27.5,50C 24.9373,51.0793 22.2706,51.5793 19.5,51.5C 19.0217,54.2776 20.0217,56.2776 22.5,57.5C 21.2178,60.1326 19.8844,60.1326 18.5,57.5C 17.5,58.1667 16.5,58.8333 15.5,59.5C 14.5078,63.7828 14.1744,68.1161 14.5,72.5C 11.2429,72.2363 9.24286,70.5696 8.5,67.5C 6.80072,67.4729 5.46739,66.8062 4.5,65.5C 15.437,36.8964 35.1037,16.8964 63.5,5.5 Z"/></g>
<g><path style="opacity:1" fill="#931949" d="M 98.5,23.5 C 98.3915,25.5138 99.0582,27.1805 100.5,28.5C 98.1489,30.0696 95.4823,30.9029 92.5,31C 95.1667,32 95.1667,33 92.5,34C 93.3366,35.0113 93.67,36.1779 93.5,37.5C 91.6693,38.0522 90.0026,38.0522 88.5,37.5C 87.1667,39.8333 85.8333,42.1667 84.5,44.5C 82.9309,43.286 82.0976,41.6193 82,39.5C 81.586,39.9574 81.086,40.2907 80.5,40.5C 79.2742,38.7221 77.6075,37.7221 75.5,37.5C 71.7232,33.1208 67.3899,29.4542 62.5,26.5C 65.5164,25.9413 68.5164,25.2746 71.5,24.5C 72.7481,25.0402 73.9148,25.7069 75,26.5C 76.608,24.9004 78.4414,23.567 80.5,22.5C 81.7202,23.7111 82.8869,23.7111 84,22.5C 84.3076,23.3081 84.8076,23.9747 85.5,24.5C 88.0561,23.9488 90.3894,22.9488 92.5,21.5C 93.7193,22.2634 94.7193,23.2634 95.5,24.5C 96.4168,23.8728 97.4168,23.5394 98.5,23.5 Z"/></g>
<g><path style="opacity:1" fill="#977789" d="M 62.5,26.5 C 67.3899,29.4542 71.7232,33.1208 75.5,37.5C 70.3978,34.2451 65.3978,30.7451 60.5,27C 59.4232,26.5304 58.4232,26.6971 57.5,27.5C 56.8333,27.5 56.1667,27.5 55.5,27.5C 57.5419,25.4094 59.8752,25.0761 62.5,26.5 Z"/></g>
<g><path style="opacity:1" fill="#8f2053" d="M 110.5,27.5 C 111.094,33.9931 108.428,37.3264 102.5,37.5C 101.289,38.2739 101.289,39.1072 102.5,40C 98.6777,41.6935 99.011,43.0268 103.5,44C 105.81,44.4966 108.143,44.6633 110.5,44.5C 107.674,45.3425 104.674,46.0092 101.5,46.5C 100.287,46.7472 99.62,47.4138 99.5,48.5C 98.5084,48.3284 97.8417,48.6618 97.5,49.5C 93.5878,50.0012 89.5878,50.0012 85.5,49.5C 85.1667,49.5 84.8333,49.5 84.5,49.5C 82.294,44.953 79.294,40.953 75.5,37.5C 77.6075,37.7221 79.2742,38.7221 80.5,40.5C 81.086,40.2907 81.586,39.9574 82,39.5C 82.0976,41.6193 82.9309,43.286 84.5,44.5C 85.8333,42.1667 87.1667,39.8333 88.5,37.5C 90.0026,38.0522 91.6693,38.0522 93.5,37.5C 93.67,36.1779 93.3366,35.0113 92.5,34C 95.1667,33 95.1667,32 92.5,31C 95.4823,30.9029 98.1489,30.0696 100.5,28.5C 103.939,28.7471 107.272,28.4137 110.5,27.5 Z"/></g>
<g><path style="opacity:1" fill="#e47189" d="M 141.5,27.5 C 142.6,28.6049 143.267,29.9382 143.5,31.5C 139.916,27.6327 136.249,27.6327 132.5,31.5C 132.158,30.6618 131.492,30.3284 130.5,30.5C 133.776,27.7658 137.442,26.7658 141.5,27.5 Z"/></g>
<g><path style="opacity:1" fill="#821f53" d="M 110.5,27.5 C 112.423,29.19 114.423,29.5234 116.5,28.5C 119.167,27.1667 121.833,27.1667 124.5,28.5C 124.629,30.2161 124.962,31.8828 125.5,33.5C 120.833,36.1667 117.167,39.8333 114.5,44.5C 113.167,44.5 111.833,44.5 110.5,44.5C 108.143,44.6633 105.81,44.4966 103.5,44C 99.011,43.0268 98.6777,41.6935 102.5,40C 101.289,39.1072 101.289,38.2739 102.5,37.5C 108.428,37.3264 111.094,33.9931 110.5,27.5 Z"/></g>
<g><path style="opacity:1" fill="#9b939b" d="M 55.5,27.5 C 56.1667,27.5 56.8333,27.5 57.5,27.5C 51.3044,33.2139 47.1377,40.2139 45,48.5C 44.187,46.5643 43.687,44.5643 43.5,42.5C 44.3195,39.5276 45.6529,36.8609 47.5,34.5C 49.5,32.5 51.5,30.5 53.5,28.5C 54.1667,28.1667 54.8333,27.8333 55.5,27.5 Z"/></g>
<g><path style="opacity:1" fill="#e53850" d="M 143.5,31.5 C 145.822,32.8021 147.155,34.8021 147.5,37.5C 147.343,38.8734 147.51,40.2068 148,41.5C 149.797,43.1311 150.964,45.1311 151.5,47.5C 153.485,53.494 154.818,59.494 155.5,65.5C 157.5,67.1667 159.5,68.8333 161.5,70.5C 161.833,70.5 162.167,70.5 162.5,70.5C 163.11,71.391 163.443,72.391 163.5,73.5C 163.769,75.4286 163.269,77.0953 162,78.5C 160.252,76.8648 159.085,74.8648 158.5,72.5C 157.378,71.3698 156.044,70.7031 154.5,70.5C 153.5,70.1667 152.833,69.5 152.5,68.5C 151.103,63.4959 149.77,58.4959 148.5,53.5C 148.5,53.1667 148.5,52.8333 148.5,52.5C 148.024,46.5518 145.691,41.5518 141.5,37.5C 141.443,36.391 141.11,35.391 140.5,34.5C 137.715,33.1153 135.382,33.782 133.5,36.5C 128.743,39.9227 125.076,44.256 122.5,49.5C 114.854,48.793 107.187,48.4597 99.5,48.5C 99.62,47.4138 100.287,46.7472 101.5,46.5C 104.674,46.0092 107.674,45.3425 110.5,44.5C 111.833,44.5 113.167,44.5 114.5,44.5C 115.873,44.6567 117.207,44.49 118.5,44C 122.74,39.2546 127.407,35.088 132.5,31.5C 136.249,27.6327 139.916,27.6327 143.5,31.5 Z"/></g>
<g><path style="opacity:1" fill="#9e3948" d="M 140.5,34.5 C 138.167,35.1667 135.833,35.8333 133.5,36.5C 135.382,33.782 137.715,33.1153 140.5,34.5 Z"/></g>
<g><path style="opacity:1" fill="#f8c3d1" d="M 130.5,30.5 C 131.492,30.3284 132.158,30.6618 132.5,31.5C 127.407,35.088 122.74,39.2546 118.5,44C 117.207,44.49 115.873,44.6567 114.5,44.5C 117.167,39.8333 120.833,36.1667 125.5,33.5C 127.001,32.2485 128.668,31.2485 130.5,30.5 Z"/></g>
<g><path style="opacity:1" fill="#4a363f" d="M 140.5,34.5 C 141.11,35.391 141.443,36.391 141.5,37.5C 142.827,40.4707 144.16,43.4707 145.5,46.5C 146.758,50.7624 147.258,55.0957 147,59.5C 146.667,59.8333 146.333,60.1667 146,60.5C 145.667,58.5 145.333,56.5 145,54.5C 144.617,53.944 144.117,53.6107 143.5,53.5C 142.783,49.5658 141.117,46.0658 138.5,43C 135.716,42.5828 133.716,43.7495 132.5,46.5C 132.624,47.1067 132.957,47.44 133.5,47.5C 132.632,49.6246 131.632,49.7913 130.5,48C 131.953,43.231 131.453,42.731 129,46.5C 128.577,45.0439 127.744,44.5439 126.5,45C 125.267,46.6667 123.933,48.1667 122.5,49.5C 125.076,44.256 128.743,39.9227 133.5,36.5C 135.833,35.8333 138.167,35.1667 140.5,34.5 Z"/></g>
<g><path style="opacity:1" fill="#5a1a4f" d="M 167.5,25.5 C 173.587,30.2509 178.587,35.9176 182.5,42.5C 178.384,40.7218 174.051,39.7218 169.5,39.5C 169.769,41.4286 169.269,43.0953 168,44.5C 165.619,43.565 163.119,43.2317 160.5,43.5C 158.892,38.5234 157.559,38.5234 156.5,43.5C 154.682,41.9219 153.682,42.4219 153.5,45C 154.077,47.137 154.41,49.3037 154.5,51.5C 153.062,47.9273 151.728,44.2606 150.5,40.5C 149.265,38.2271 149.598,36.3938 151.5,35C 150.313,33.9805 149.313,32.8139 148.5,31.5C 150.674,30.1068 152.507,30.4402 154,32.5C 155.707,31.8617 157.54,31.8617 159.5,32.5C 159.677,30.0194 158.677,28.1861 156.5,27C 160.265,25.5875 163.932,25.0875 167.5,25.5 Z"/></g>
<g><path style="opacity:1" fill="#541d57" d="M 182.5,42.5 C 184.664,44.822 186.331,47.4887 187.5,50.5C 186.778,50.9175 186.278,51.5842 186,52.5C 184.951,50.8934 183.451,50.2267 181.5,50.5C 177.21,51.0126 173.377,50.0126 170,47.5C 167.199,48.7946 164.366,48.7946 161.5,47.5C 160.158,49.0049 158.492,49.6715 156.5,49.5C 156.5,47.5 156.5,45.5 156.5,43.5C 157.559,38.5234 158.892,38.5234 160.5,43.5C 163.119,43.2317 165.619,43.565 168,44.5C 169.269,43.0953 169.769,41.4286 169.5,39.5C 174.051,39.7218 178.384,40.7218 182.5,42.5 Z"/></g>
<g><path style="opacity:1" fill="#acacb2" d="M 61.5,33.5 C 70.2524,37.2491 77.9191,42.5825 84.5,49.5C 84.8333,49.5 85.1667,49.5 85.5,49.5C 88.2583,50.9665 87.925,51.6332 84.5,51.5C 76.9757,45.2475 69.3091,39.2475 61.5,33.5 Z"/></g>
<g><path style="opacity:1" fill="#cb355b" d="M 147.5,37.5 C 148.728,38.3065 149.728,39.3065 150.5,40.5C 151.728,44.2606 153.062,47.9273 154.5,51.5C 154.963,54.4824 155.296,57.4824 155.5,60.5C 155.5,62.1667 155.5,63.8333 155.5,65.5C 154.818,59.494 153.485,53.494 151.5,47.5C 150.964,45.1311 149.797,43.1311 148,41.5C 147.51,40.2068 147.343,38.8734 147.5,37.5 Z"/></g>
<g><path style="opacity:1" fill="#1d212f" d="M 75.5,37.5 C 79.294,40.953 82.294,44.953 84.5,49.5C 77.9191,42.5825 70.2524,37.2491 61.5,33.5C 60.2438,33.4614 59.2438,33.9614 58.5,35C 62.0197,36.2571 65.0197,38.2571 67.5,41C 66.8742,41.7504 66.3742,42.5838 66,43.5C 64,42.8333 62,42.1667 60,41.5C 59.51,42.7932 59.3433,44.1266 59.5,45.5C 55.317,51.9015 53.817,58.9015 55,66.5C 56.0824,62.3255 57.749,58.3255 60,54.5C 60.5613,53.9781 61.228,53.6448 62,53.5C 65.7772,55.4432 68.2772,58.4432 69.5,62.5C 69.4712,64.0293 68.8045,65.196 67.5,66C 63.9084,68.7135 60.4084,71.5468 57,74.5C 56.5022,76.5269 56.6689,78.5269 57.5,80.5C 57.2483,82.0729 56.5817,83.4062 55.5,84.5C 55.1667,84.5 54.8333,84.5 54.5,84.5C 54.2625,81.7884 54.2625,79.2884 54.5,77C 51.2103,77.3685 47.877,77.3685 44.5,77C 45.8905,75.98 47.3905,75.1466 49,74.5C 49.6667,67.8333 49.6667,61.1667 49,54.5C 47.9774,60.793 47.3107,67.1263 47,73.5C 45.4163,70.734 43.9163,68.0674 42.5,65.5C 40.1238,64.1834 38.4571,64.8501 37.5,67.5C 38.1667,62.5 38.8333,57.5 39.5,52.5C 39.9337,48.7233 41.267,45.39 43.5,42.5C 43.687,44.5643 44.187,46.5643 45,48.5C 47.1377,40.2139 51.3044,33.2139 57.5,27.5C 58.4232,26.6971 59.4232,26.5304 60.5,27C 65.3978,30.7451 70.3978,34.2451 75.5,37.5 Z"/></g>
<g><path style="opacity:1" fill="#7a081d" d="M 141.5,37.5 C 145.691,41.5518 148.024,46.5518 148.5,52.5C 147.5,50.5 146.5,48.5 145.5,46.5C 144.16,43.4707 142.827,40.4707 141.5,37.5 Z"/></g>
<g><path style="opacity:1" fill="#cf3149" d="M 143.5,53.5 C 144.614,56.1771 144.614,58.8438 143.5,61.5C 142.167,60.8333 140.833,60.1667 139.5,59.5C 139.29,56.614 139.123,53.614 139,50.5C 138.722,49.5842 138.222,48.9175 137.5,48.5C 136.292,47.7659 134.959,47.4326 133.5,47.5C 132.957,47.44 132.624,47.1067 132.5,46.5C 133.716,43.7495 135.716,42.5828 138.5,43C 141.117,46.0658 142.783,49.5658 143.5,53.5 Z"/></g>
<g><path style="opacity:1" fill="#5b2264" d="M 156.5,43.5 C 156.5,45.5 156.5,47.5 156.5,49.5C 158.492,49.6715 160.158,49.0049 161.5,47.5C 164.366,48.7946 167.199,48.7946 170,47.5C 173.377,50.0126 177.21,51.0126 181.5,50.5C 180.814,52.2269 179.647,53.8936 178,55.5C 175.36,53.4765 172.527,53.1432 169.5,54.5C 169.64,56.2555 169.14,57.9222 168,59.5C 164.943,58.5495 161.777,58.2161 158.5,58.5C 158.5,60.8333 158.5,63.1667 158.5,65.5C 157.065,64.0867 156.065,62.42 155.5,60.5C 155.296,57.4824 154.963,54.4824 154.5,51.5C 154.41,49.3037 154.077,47.137 153.5,45C 153.682,42.4219 154.682,41.9219 156.5,43.5 Z"/></g>
<g><path style="opacity:1" fill="#9e1847" d="M 47.5,34.5 C 45.6529,36.8609 44.3195,39.5276 43.5,42.5C 41.267,45.39 39.9337,48.7233 39.5,52.5C 36.9662,58.7977 35.9662,65.4644 36.5,72.5C 35.1667,72.5 34.5,73.1667 34.5,74.5C 32.8333,75.8333 31.1667,77.1667 29.5,78.5C 28.2652,78.2786 27.2652,77.6119 26.5,76.5C 25.7189,77.7287 25.2189,79.062 25,80.5C 21.2681,76.3052 20.4348,76.4719 22.5,81C 20.634,84.3875 19.3007,84.2209 18.5,80.5C 17.6143,81.325 17.281,82.325 17.5,83.5C 16.5,83.5 15.5,83.5 14.5,83.5C 15.3536,89.1826 13.0203,91.8493 7.5,91.5C 7.06186,87.9639 6.06186,88.1306 4.5,92C 5.51848,93.9346 6.35182,95.7679 7,97.5C 4.97473,99.6931 2.47473,100.693 -0.5,100.5C -0.5,94.8333 -0.5,89.1667 -0.5,83.5C 0.65086,77.4435 2.31753,71.4435 4.5,65.5C 5.46739,66.8062 6.80072,67.4729 8.5,67.5C 9.24286,70.5696 11.2429,72.2363 14.5,72.5C 14.1744,68.1161 14.5078,63.7828 15.5,59.5C 16.5,58.8333 17.5,58.1667 18.5,57.5C 19.8844,60.1326 21.2178,60.1326 22.5,57.5C 20.0217,56.2776 19.0217,54.2776 19.5,51.5C 22.2706,51.5793 24.9373,51.0793 27.5,50C 28.3366,48.9887 28.67,47.8221 28.5,46.5C 29.8333,46.5 31.1667,46.5 32.5,46.5C 32.6203,43.5198 33.287,40.6865 34.5,38C 36.8878,37.1349 38.3878,37.9683 39,40.5C 42.0134,38.6369 44.8468,36.6369 47.5,34.5 Z"/></g>
<g><path style="opacity:1" fill="#2c2d39" d="M 61.5,33.5 C 69.3091,39.2475 76.9757,45.2475 84.5,51.5C 96.3262,52.6597 108.326,52.8263 120.5,52C 119.263,51.7679 118.263,51.2679 117.5,50.5C 119.415,50.7845 121.081,50.4511 122.5,49.5C 123.933,48.1667 125.267,46.6667 126.5,45C 127.744,44.5439 128.577,45.0439 129,46.5C 131.453,42.731 131.953,43.231 130.5,48C 131.632,49.7913 132.632,49.6246 133.5,47.5C 134.959,47.4326 136.292,47.7659 137.5,48.5C 137.662,50.5273 137.495,52.5273 137,54.5C 135.491,55.0897 133.991,55.7564 132.5,56.5C 135.439,57.456 137.772,59.1226 139.5,61.5C 142.106,63.1722 144.773,63.5055 147.5,62.5C 147.5,63.8333 147.5,65.1667 147.5,66.5C 143.992,65.4692 140.659,64.8026 137.5,64.5C 134.054,62.8908 130.721,61.0574 127.5,59C 125.934,58.235 124.601,58.4017 123.5,59.5C 110.311,55.8697 96.9781,55.5364 83.5,58.5C 78.1248,53.7922 72.4581,49.4588 66.5,45.5C 64.2118,42.8574 61.8784,42.8574 59.5,45.5C 59.3433,44.1266 59.51,42.7932 60,41.5C 62,42.1667 64,42.8333 66,43.5C 66.3742,42.5838 66.8742,41.7504 67.5,41C 65.0197,38.2571 62.0197,36.2571 58.5,35C 59.2438,33.9614 60.2438,33.4614 61.5,33.5 Z"/></g>
<g><path style="opacity:1" fill="#575056" d="M 85.5,49.5 C 89.5878,50.0012 93.5878,50.0012 97.5,49.5C 104.196,49.391 110.863,49.7243 117.5,50.5C 118.263,51.2679 119.263,51.7679 120.5,52C 108.326,52.8263 96.3262,52.6597 84.5,51.5C 87.925,51.6332 88.2583,50.9665 85.5,49.5 Z"/></g>
<g><path style="opacity:1" fill="#7a1223" d="M 97.5,49.5 C 97.8417,48.6618 98.5084,48.3284 99.5,48.5C 107.187,48.4597 114.854,48.793 122.5,49.5C 121.081,50.4511 119.415,50.7845 117.5,50.5C 110.863,49.7243 104.196,49.391 97.5,49.5 Z"/></g>
<g><path style="opacity:1" fill="#898888" d="M 66.5,45.5 C 66.0618,45.4346 65.7284,45.6012 65.5,46C 71.2716,49.603 76.2716,54.103 80.5,59.5C 81.6667,59.8333 82.8333,60.1667 84,60.5C 97.2767,57.5487 110.443,57.8821 123.5,61.5C 124.107,61.3764 124.44,61.0431 124.5,60.5C 126.463,61.9599 128.296,63.6266 130,65.5C 132.437,68.7196 134.603,72.053 136.5,75.5C 134.02,74.0883 131.687,72.4216 129.5,70.5C 128.833,72.5 128.167,74.5 127.5,76.5C 116.854,67.2544 104.521,64.0877 90.5,67C 83.3555,69.7376 77.0222,73.7376 71.5,79C 75.4247,78.4816 79.4247,78.4816 83.5,79C 84.056,79.3826 84.3893,79.8826 84.5,80.5C 75.5507,82.8048 68.5507,87.8048 63.5,95.5C 64.3556,91.0824 65.6889,87.4157 67.5,84.5C 65.1667,84.5 62.8333,84.5 60.5,84.5C 60.6713,87.7973 60.0046,88.1306 58.5,85.5C 56.6329,88.2291 55.6329,87.8957 55.5,84.5C 56.5817,83.4062 57.2483,82.0729 57.5,80.5C 56.6689,78.5269 56.5022,76.5269 57,74.5C 60.4084,71.5468 63.9084,68.7135 67.5,66C 68.8045,65.196 69.4712,64.0293 69.5,62.5C 68.2772,58.4432 65.7772,55.4432 62,53.5C 61.228,53.6448 60.5613,53.9781 60,54.5C 57.749,58.3255 56.0824,62.3255 55,66.5C 53.817,58.9015 55.317,51.9015 59.5,45.5C 61.8784,42.8574 64.2118,42.8574 66.5,45.5 Z"/></g>
<g><path style="opacity:1" fill="#a9aaac" d="M 66.5,45.5 C 72.4581,49.4588 78.1248,53.7922 83.5,58.5C 96.9781,55.5364 110.311,55.8697 123.5,59.5C 123.5,60.1667 123.833,60.5 124.5,60.5C 124.44,61.0431 124.107,61.3764 123.5,61.5C 110.443,57.8821 97.2767,57.5487 84,60.5C 82.8333,60.1667 81.6667,59.8333 80.5,59.5C 76.2716,54.103 71.2716,49.603 65.5,46C 65.7284,45.6012 66.0618,45.4346 66.5,45.5 Z"/></g>
<g><path style="opacity:1" fill="#441e2b" d="M 145.5,46.5 C 146.5,48.5 147.5,50.5 148.5,52.5C 148.5,52.8333 148.5,53.1667 148.5,53.5C 149.2,57.7978 149.533,62.1311 149.5,66.5C 148.833,65.1667 148.167,63.8333 147.5,62.5C 144.773,63.5055 142.106,63.1722 139.5,61.5C 137.772,59.1226 135.439,57.456 132.5,56.5C 133.991,55.7564 135.491,55.0897 137,54.5C 137.495,52.5273 137.662,50.5273 137.5,48.5C 138.222,48.9175 138.722,49.5842 139,50.5C 139.123,53.614 139.29,56.614 139.5,59.5C 140.833,60.1667 142.167,60.8333 143.5,61.5C 144.614,58.8438 144.614,56.1771 143.5,53.5C 144.117,53.6107 144.617,53.944 145,54.5C 145.333,56.5 145.667,58.5 146,60.5C 146.333,60.1667 146.667,59.8333 147,59.5C 147.258,55.0957 146.758,50.7624 145.5,46.5 Z"/></g>
<g><path style="opacity:1" fill="#52246b" d="M 181.5,50.5 C 183.451,50.2267 184.951,50.8934 186,52.5C 186.278,51.5842 186.778,50.9175 187.5,50.5C 190.211,54.9563 192.544,59.6229 194.5,64.5C 193.735,64.9234 192.902,65.2568 192,65.5C 189.276,64.3132 186.443,63.6465 183.5,63.5C 183.5,64.8333 183.5,66.1667 183.5,67.5C 177.629,65.8675 171.629,64.8675 165.5,64.5C 165.5,65.5 165.5,66.5 165.5,67.5C 164.5,67.5 163.5,67.5 162.5,67.5C 162.5,68.5 162.5,69.5 162.5,70.5C 162.167,70.5 161.833,70.5 161.5,70.5C 160.925,68.5887 159.925,66.922 158.5,65.5C 158.5,63.1667 158.5,60.8333 158.5,58.5C 161.777,58.2161 164.943,58.5495 168,59.5C 169.14,57.9222 169.64,56.2555 169.5,54.5C 172.527,53.1432 175.36,53.4765 178,55.5C 179.647,53.8936 180.814,52.2269 181.5,50.5 Z"/></g>
<g><path style="opacity:1" fill="#a53a71" d="M 155.5,60.5 C 156.065,62.42 157.065,64.0867 158.5,65.5C 159.925,66.922 160.925,68.5887 161.5,70.5C 159.5,68.8333 157.5,67.1667 155.5,65.5C 155.5,63.8333 155.5,62.1667 155.5,60.5 Z"/></g>
<g><path style="opacity:1" fill="#7e081f" d="M 148.5,53.5 C 149.77,58.4959 151.103,63.4959 152.5,68.5C 150.973,68.573 149.973,67.9063 149.5,66.5C 149.533,62.1311 149.2,57.7978 148.5,53.5 Z"/></g>
<g><path style="opacity:1" fill="#652240" d="M 39.5,52.5 C 38.8333,57.5 38.1667,62.5 37.5,67.5C 37.7845,69.4147 37.4511,71.0813 36.5,72.5C 35.9662,65.4644 36.9662,58.7977 39.5,52.5 Z"/></g>
<g><path style="opacity:1" fill="#f3f1f2" d="M 136.5,75.5 C 138.663,80.7496 140.329,80.4163 141.5,74.5C 144.879,76.968 147.546,79.968 149.5,83.5C 151.715,84.2679 154.048,84.9346 156.5,85.5C 153.516,86.7483 150.682,88.415 148,90.5C 146.478,88.2591 145.145,85.9258 144,83.5C 142.885,84.9999 142.052,86.6666 141.5,88.5C 140.675,89.3857 139.675,89.719 138.5,89.5C 137.833,85.5 135.5,83.1667 131.5,82.5C 131.769,84.4286 131.269,86.0953 130,87.5C 120.492,76.8863 108.659,72.3863 94.5,74C 83.506,78.4651 83.8394,80.6318 95.5,80.5C 91.8333,80.5 88.1667,80.5 84.5,80.5C 84.3893,79.8826 84.056,79.3826 83.5,79C 79.4247,78.4816 75.4247,78.4816 71.5,79C 77.0222,73.7376 83.3555,69.7376 90.5,67C 104.521,64.0877 116.854,67.2544 127.5,76.5C 128.167,74.5 128.833,72.5 129.5,70.5C 131.687,72.4216 134.02,74.0883 136.5,75.5 Z"/></g>
<g><path style="opacity:1" fill="#4d2979" d="M 194.5,64.5 C 196.723,70.2801 198.056,76.2801 198.5,82.5C 193.582,81.4829 188.749,80.1496 184,78.5C 182.234,79.2335 180.401,79.5668 178.5,79.5C 178.453,82.5682 177.953,85.5682 177,88.5C 176.888,85.5529 175.388,84.2196 172.5,84.5C 172.336,87.8174 171.336,90.8174 169.5,93.5C 169.047,95.5652 168.047,97.2318 166.5,98.5C 167.038,96.8828 167.371,95.2161 167.5,93.5C 169.412,89.8064 169.912,85.8064 169,81.5C 168.617,80.944 168.117,80.6107 167.5,80.5C 167.672,79.5084 167.338,78.8417 166.5,78.5C 166.25,76.326 165.25,74.6594 163.5,73.5C 163.443,72.391 163.11,71.391 162.5,70.5C 162.5,69.5 162.5,68.5 162.5,67.5C 163.5,67.5 164.5,67.5 165.5,67.5C 165.5,66.5 165.5,65.5 165.5,64.5C 171.629,64.8675 177.629,65.8675 183.5,67.5C 183.5,66.1667 183.5,64.8333 183.5,63.5C 186.443,63.6465 189.276,64.3132 192,65.5C 192.902,65.2568 193.735,64.9234 194.5,64.5 Z"/></g>
<g><path style="opacity:1" fill="#565860" d="M 42.5,65.5 C 42.6621,67.5273 42.4955,69.5273 42,71.5C 35.0952,76.8946 29.9285,83.5612 26.5,91.5C 25.4265,90.7494 25.2599,89.7494 26,88.5C 28.1956,83.3646 31.029,78.6979 34.5,74.5C 34.5,73.1667 35.1667,72.5 36.5,72.5C 37.4511,71.0813 37.7845,69.4147 37.5,67.5C 38.4571,64.8501 40.1238,64.1834 42.5,65.5 Z"/></g>
<g><path style="opacity:1" fill="#14182a" d="M 54.5,84.5 C 49.8195,91.8697 45.1529,99.203 40.5,106.5C 39.6457,103.32 38.6457,99.9867 37.5,96.5C 39.5565,94.07 40.7232,91.4034 41,88.5C 38.3333,93.8333 34.3333,97.8333 29,100.5C 25.496,108.486 22.3293,116.486 19.5,124.5C 19.5,123.5 19.5,122.5 19.5,121.5C 18.5,121.5 17.5,121.5 16.5,121.5C 16.7373,122.791 16.404,123.791 15.5,124.5C 16.8331,118.063 18.6664,111.729 21,105.5C 22.5661,102.248 24.3994,99.248 26.5,96.5C 26.8152,94.7353 26.8152,93.0687 26.5,91.5C 29.9285,83.5612 35.0952,76.8946 42,71.5C 42.4955,69.5273 42.6621,67.5273 42.5,65.5C 43.9163,68.0674 45.4163,70.734 47,73.5C 47.3107,67.1263 47.9774,60.793 49,54.5C 49.6667,61.1667 49.6667,67.8333 49,74.5C 47.3905,75.1466 45.8905,75.98 44.5,77C 47.877,77.3685 51.2103,77.3685 54.5,77C 54.2625,79.2884 54.2625,81.7884 54.5,84.5 Z"/></g>
<g><path style="opacity:1" fill="#b51c3b" d="M 154.5,70.5 C 156.044,70.7031 157.378,71.3698 158.5,72.5C 159.085,74.8648 160.252,76.8648 162,78.5C 163.269,77.0953 163.769,75.4286 163.5,73.5C 165.25,74.6594 166.25,76.326 166.5,78.5C 165.5,78.5 164.5,78.5 163.5,78.5C 164.444,81.9988 164.444,85.3322 163.5,88.5C 163.557,86.1155 163.223,83.7822 162.5,81.5C 159.975,77.7237 157.308,74.0571 154.5,70.5 Z"/></g>
<g><path style="opacity:1" fill="#f6f7f7" d="M 84.5,80.5 C 88.1667,80.5 91.8333,80.5 95.5,80.5C 99.026,81.36 101.693,83.36 103.5,86.5C 92.8548,84.4956 84.1881,87.8289 77.5,96.5C 71.2877,104.33 68.6211,113.33 69.5,123.5C 64.6073,122.204 59.9407,120.538 55.5,118.5C 55.7861,109.974 58.4527,102.307 63.5,95.5C 68.5507,87.8048 75.5507,82.8048 84.5,80.5 Z"/></g>
<g><path style="opacity:1" fill="#d82944" d="M 137.5,64.5 C 141.307,68.1349 145.307,71.6349 149.5,75C 150.823,75.8159 151.489,76.9826 151.5,78.5C 151.703,80.0443 152.37,81.3777 153.5,82.5C 152.311,83.4287 150.978,83.762 149.5,83.5C 147.546,79.968 144.879,76.968 141.5,74.5C 140.329,80.4163 138.663,80.7496 136.5,75.5C 134.603,72.053 132.437,68.7196 130,65.5C 128.296,63.6266 126.463,61.9599 124.5,60.5C 123.833,60.5 123.5,60.1667 123.5,59.5C 124.601,58.4017 125.934,58.235 127.5,59C 130.721,61.0574 134.054,62.8908 137.5,64.5 Z"/></g>
<g><path style="opacity:1" fill="#c4445a" d="M 151.5,78.5 C 153.9,80.2964 155.567,82.6298 156.5,85.5C 154.048,84.9346 151.715,84.2679 149.5,83.5C 150.978,83.762 152.311,83.4287 153.5,82.5C 152.37,81.3777 151.703,80.0443 151.5,78.5 Z"/></g>
<g><path style="opacity:1" fill="#808080" d="M 54.5,84.5 C 54.8333,84.5 55.1667,84.5 55.5,84.5C 55.6329,87.8957 56.6329,88.2291 58.5,85.5C 60.0046,88.1306 60.6713,87.7973 60.5,84.5C 62.8333,84.5 65.1667,84.5 67.5,84.5C 65.6889,87.4157 64.3556,91.0824 63.5,95.5C 58.4527,102.307 55.7861,109.974 55.5,118.5C 49.9616,117.107 44.2949,116.44 38.5,116.5C 37.9033,116.265 37.5699,115.765 37.5,115C 38.8031,112.256 39.8031,109.423 40.5,106.5C 45.1529,99.203 49.8195,91.8697 54.5,84.5 Z"/></g>
<g><path style="opacity:1" fill="#1b1f2e" d="M 156.5,85.5 C 157.043,85.56 157.376,85.8933 157.5,86.5C 156.263,87.2807 155.263,88.2807 154.5,89.5C 155.617,90.9494 156.284,92.6161 156.5,94.5C 156.415,96.3328 155.748,97.6661 154.5,98.5C 153.701,101.116 152.368,102.616 150.5,103C 151.071,104.599 152.071,105.766 153.5,106.5C 151.133,107.164 149.133,108.497 147.5,110.5C 142.622,104.226 136.288,100.226 128.5,98.5C 129.124,103.392 127.458,104.558 123.5,102C 119.5,101.333 115.5,101.333 111.5,102C 114.963,103.232 118.297,104.732 121.5,106.5C 122.833,108.5 124.5,110.167 126.5,111.5C 131.488,118.128 136.488,124.795 141.5,131.5C 141.125,132.793 140.792,134.126 140.5,135.5C 138.233,134.577 135.9,133.744 133.5,133C 125.729,132.934 118.062,132.267 110.5,131C 103.3,125.094 100.8,117.594 103,108.5C 104.049,106.616 105.549,105.282 107.5,104.5C 107.611,105.117 107.944,105.617 108.5,106C 111.036,106.186 113.369,106.686 115.5,107.5C 116.376,107.631 117.043,107.298 117.5,106.5C 115.368,105.402 113.202,104.402 111,103.5C 110.667,103.833 110.333,104.167 110,104.5C 108.635,103.407 108.301,102.074 109,100.5C 113.093,100.546 117.26,100.213 121.5,99.5C 119.994,98.2528 118.494,98.2528 117,99.5C 112.776,96.6485 108.443,93.9818 104,91.5C 99.5577,94.2533 94.391,95.0866 88.5,94C 87.6667,93.1667 86.8333,92.3333 86,91.5C 83.0292,93.0637 80.1959,94.7304 77.5,96.5C 84.1881,87.8289 92.8548,84.4956 103.5,86.5C 101.693,83.36 99.026,81.36 95.5,80.5C 83.8394,80.6318 83.506,78.4651 94.5,74C 108.659,72.3863 120.492,76.8863 130,87.5C 131.269,86.0953 131.769,84.4286 131.5,82.5C 135.5,83.1667 137.833,85.5 138.5,89.5C 139.675,89.719 140.675,89.3857 141.5,88.5C 142.052,86.6666 142.885,84.9999 144,83.5C 145.145,85.9258 146.478,88.2591 148,90.5C 150.682,88.415 153.516,86.7483 156.5,85.5 Z"/></g>
<g><path style="opacity:1" fill="#ebeced" d="M 109.5,82.5 C 115.217,83.5579 119.55,86.5579 122.5,91.5C 120.473,93.339 118.14,93.839 115.5,93C 113.097,89.6894 111.097,86.1894 109.5,82.5 Z"/></g>
<g><path style="opacity:1" fill="#a02260" d="M 167.5,80.5 C 168.117,80.6107 168.617,80.944 169,81.5C 169.912,85.8064 169.412,89.8064 167.5,93.5C 168.65,89.1409 168.65,84.8076 167.5,80.5 Z"/></g>
<g><path style="opacity:1" fill="#901747" d="M 29.5,78.5 C 24.7755,82.8844 21.7755,88.2178 20.5,94.5C 21.7683,95.787 21.435,96.787 19.5,97.5C 20.6405,99.0778 21.1405,100.744 21,102.5C 19.8869,101.289 18.7202,101.289 17.5,102.5C 16.0512,105.732 14.8845,109.065 14,112.5C 12.4152,111.624 11.4152,110.291 11,108.5C 10.3333,109.833 9.66667,111.167 9,112.5C 7.61238,111.446 6.11238,111.28 4.5,112C 5.42308,114.041 5.75642,116.208 5.5,118.5C 3.7839,118.371 2.11723,118.038 0.5,117.5C 0.67158,116.508 0.338246,115.842 -0.5,115.5C -0.5,110.5 -0.5,105.5 -0.5,100.5C 2.47473,100.693 4.97473,99.6931 7,97.5C 6.35182,95.7679 5.51848,93.9346 4.5,92C 6.06186,88.1306 7.06186,87.9639 7.5,91.5C 13.0203,91.8493 15.3536,89.1826 14.5,83.5C 15.5,83.5 16.5,83.5 17.5,83.5C 17.281,82.325 17.6143,81.325 18.5,80.5C 19.3007,84.2209 20.634,84.3875 22.5,81C 20.4348,76.4719 21.2681,76.3052 25,80.5C 25.2189,79.062 25.7189,77.7287 26.5,76.5C 27.2652,77.6119 28.2652,78.2786 29.5,78.5 Z"/></g>
<g><path style="opacity:1" fill="#3c2e3d" d="M 34.5,74.5 C 31.029,78.6979 28.1956,83.3646 26,88.5C 25.2599,89.7494 25.4265,90.7494 26.5,91.5C 26.8152,93.0687 26.8152,94.7353 26.5,96.5C 25.0821,94.6921 23.0821,94.0254 20.5,94.5C 21.7755,88.2178 24.7755,82.8844 29.5,78.5C 31.1667,77.1667 32.8333,75.8333 34.5,74.5 Z"/></g>
<g><path style="opacity:1" fill="#432f87" d="M 198.5,82.5 C 198.5,83.1667 198.833,83.5 199.5,83.5C 199.5,90.8333 199.5,98.1667 199.5,105.5C 198.017,103.906 196.517,102.24 195,100.5C 193.663,102.004 191.996,103.004 190,103.5C 184.747,98.7022 179.581,94.3689 174.5,90.5C 173.305,92.297 171.638,93.297 169.5,93.5C 171.336,90.8174 172.336,87.8174 172.5,84.5C 175.388,84.2196 176.888,85.5529 177,88.5C 177.953,85.5682 178.453,82.5682 178.5,79.5C 180.401,79.5668 182.234,79.2335 184,78.5C 188.749,80.1496 193.582,81.4829 198.5,82.5 Z"/></g>
<g><path style="opacity:1" fill="#13182a" d="M 115.5,107.5 C 113.369,106.686 111.036,106.186 108.5,106C 107.944,105.617 107.611,105.117 107.5,104.5C 101.025,103.31 95.8586,105.643 92,111.5C 90.872,113.345 90.372,115.345 90.5,117.5C 89.3709,119.628 89.2042,121.961 90,124.5C 90.7172,123.956 91.2172,123.289 91.5,122.5C 91.8333,121.833 92.1667,121.167 92.5,120.5C 93.4682,122.607 93.8016,124.941 93.5,127.5C 89.1657,127.598 86.499,125.264 85.5,120.5C 82.2921,119.198 78.9588,118.531 75.5,118.5C 75.3364,112.833 75.0031,112.5 74.5,117.5C 73.5,117.5 72.5,117.5 71.5,117.5C 71.9491,120.29 71.9491,122.956 71.5,125.5C 68.223,124.746 64.8897,124.246 61.5,124C 53.9364,120.533 46.2697,118.033 38.5,116.5C 44.2949,116.44 49.9616,117.107 55.5,118.5C 59.9407,120.538 64.6073,122.204 69.5,123.5C 68.6211,113.33 71.2877,104.33 77.5,96.5C 80.1959,94.7304 83.0292,93.0637 86,91.5C 86.8333,92.3333 87.6667,93.1667 88.5,94C 94.391,95.0866 99.5577,94.2533 104,91.5C 108.443,93.9818 112.776,96.6485 117,99.5C 118.494,98.2528 119.994,98.2528 121.5,99.5C 117.26,100.213 113.093,100.546 109,100.5C 108.301,102.074 108.635,103.407 110,104.5C 110.333,104.167 110.667,103.833 111,103.5C 113.202,104.402 115.368,105.402 117.5,106.5C 117.043,107.298 116.376,107.631 115.5,107.5 Z"/></g>
<g><path style="opacity:1" fill="#e6e7ea" d="M 154.5,98.5 C 152.647,99.1236 150.98,98.4569 149.5,96.5C 154.542,89.2755 156.209,89.9421 154.5,98.5 Z"/></g>
<g><path style="opacity:1" fill="#0b1224" d="M 40.5,106.5 C 39.8031,109.423 38.8031,112.256 37.5,115C 37.5699,115.765 37.9033,116.265 38.5,116.5C 46.2697,118.033 53.9364,120.533 61.5,124C 64.8897,124.246 68.223,124.746 71.5,125.5C 71.9491,122.956 71.9491,120.29 71.5,117.5C 72.5,117.5 73.5,117.5 74.5,117.5C 75.0031,112.5 75.3364,112.833 75.5,118.5C 78.9588,118.531 82.2921,119.198 85.5,120.5C 86.499,125.264 89.1657,127.598 93.5,127.5C 93.5,128.167 93.8333,128.5 94.5,128.5C 94.8925,132.342 95.8925,136.009 97.5,139.5C 96.7515,140.531 96.0848,141.698 95.5,143C 96.8333,144.333 96.8333,145.667 95.5,147C 96.3081,147.308 96.9747,147.808 97.5,148.5C 96.1191,150.691 94.1191,152.024 91.5,152.5C 95.4264,153.632 99.4264,154.299 103.5,154.5C 100.409,155.604 97.4088,156.937 94.5,158.5C 91.9407,158.802 89.6074,158.468 87.5,157.5C 89.288,157.785 90.9547,157.452 92.5,156.5C 84.313,148.975 75.313,142.641 65.5,137.5C 62.6305,135.206 59.2971,133.872 55.5,133.5C 56.1667,134.167 56.8333,134.833 57.5,135.5C 56.6618,135.842 56.3284,136.508 56.5,137.5C 54.5648,136.85 52.5648,136.517 50.5,136.5C 46.3642,135.073 42.0309,133.907 37.5,133C 30.9867,132.828 24.6534,132.328 18.5,131.5C 19.2186,129.236 19.552,126.903 19.5,124.5C 22.3293,116.486 25.496,108.486 29,100.5C 34.3333,97.8333 38.3333,93.8333 41,88.5C 40.7232,91.4034 39.5565,94.07 37.5,96.5C 38.6457,99.9867 39.6457,103.32 40.5,106.5 Z"/></g>
<g><path style="opacity:1" fill="#f1f2f3" d="M 153.5,106.5 C 156.301,107.735 158.968,109.235 161.5,111C 163.037,112.11 163.703,113.61 163.5,115.5C 158.934,115.884 154.434,115.884 150,115.5C 149.333,118.167 149.333,120.833 150,123.5C 150.876,125.635 152.376,126.969 154.5,127.5C 155.739,128.212 156.239,129.212 156,130.5C 151.308,133.871 146.474,134.204 141.5,131.5C 136.488,124.795 131.488,118.128 126.5,111.5C 125.833,108.833 124.167,107.167 121.5,106.5C 118.297,104.732 114.963,103.232 111.5,102C 115.5,101.333 119.5,101.333 123.5,102C 127.458,104.558 129.124,103.392 128.5,98.5C 136.288,100.226 142.622,104.226 147.5,110.5C 149.133,108.497 151.133,107.164 153.5,106.5 Z"/></g>
<g><path style="opacity:1" fill="#3f3392" d="M 199.5,105.5 C 199.5,108.833 199.5,112.167 199.5,115.5C 198.419,118.627 197.753,121.96 197.5,125.5C 196.391,125.557 195.391,125.89 194.5,126.5C 191.853,125.042 189.687,125.708 188,128.5C 186.284,125.36 184.951,122.027 184,118.5C 183.319,122.202 183.485,125.869 184.5,129.5C 184.405,131.869 183.405,133.536 181.5,134.5C 181.5,134.167 181.5,133.833 181.5,133.5C 182.638,130.696 182.805,127.696 182,124.5C 181.95,122.256 181.117,120.589 179.5,119.5C 178.757,115.888 177.09,112.888 174.5,110.5C 172.588,107.081 170.088,104.081 167,101.5C 166.517,100.552 166.351,99.552 166.5,98.5C 168.047,97.2318 169.047,95.5652 169.5,93.5C 171.638,93.297 173.305,92.297 174.5,90.5C 179.581,94.3689 184.747,98.7022 190,103.5C 191.996,103.004 193.663,102.004 195,100.5C 196.517,102.24 198.017,103.906 199.5,105.5 Z"/></g>
<g><path style="opacity:1" fill="#cf1b3f" d="M 166.5,78.5 C 167.338,78.8417 167.672,79.5084 167.5,80.5C 168.65,84.8076 168.65,89.1409 167.5,93.5C 167.371,95.2161 167.038,96.8828 166.5,98.5C 166.351,99.552 166.517,100.552 167,101.5C 170.088,104.081 172.588,107.081 174.5,110.5C 176.046,112.882 176.713,115.549 176.5,118.5C 175.5,118.5 174.5,118.5 173.5,118.5C 170.284,112.445 165.784,107.445 160,103.5C 159.333,101.5 159.333,99.5 160,97.5C 161.654,94.7068 162.821,91.7068 163.5,88.5C 164.444,85.3322 164.444,81.9988 163.5,78.5C 164.5,78.5 165.5,78.5 166.5,78.5 Z"/></g>
<g><path style="opacity:1" fill="#f2f3f3" d="M 107.5,104.5 C 105.549,105.282 104.049,106.616 103,108.5C 100.8,117.594 103.3,125.094 110.5,131C 118.062,132.267 125.729,132.934 133.5,133C 135.9,133.744 138.233,134.577 140.5,135.5C 143.813,137.511 145.48,140.177 145.5,143.5C 141.626,140.823 137.293,139.656 132.5,140C 134.638,141.422 135.805,143.255 136,145.5C 132.566,142.578 128.566,141.244 124,141.5C 116.91,143.133 109.744,143.633 102.5,143C 100.677,142.003 99.0103,140.836 97.5,139.5C 95.8925,136.009 94.8925,132.342 94.5,128.5C 94.665,125.15 94.4983,121.817 94,118.5C 93.2828,119.044 92.7828,119.711 92.5,120.5C 92.1667,121.167 91.8333,121.833 91.5,122.5C 90.5489,121.081 90.2155,119.415 90.5,117.5C 90.372,115.345 90.872,113.345 92,111.5C 95.8586,105.643 101.025,103.31 107.5,104.5 Z"/></g>
<g><path style="opacity:1" fill="#9a9da0" d="M 121.5,106.5 C 124.167,107.167 125.833,108.833 126.5,111.5C 124.5,110.167 122.833,108.5 121.5,106.5 Z"/></g>
<g><path style="opacity:1" fill="#1f1b29" d="M 147.5,62.5 C 148.167,63.8333 148.833,65.1667 149.5,66.5C 149.973,67.9063 150.973,68.573 152.5,68.5C 152.833,69.5 153.5,70.1667 154.5,70.5C 157.308,74.0571 159.975,77.7237 162.5,81.5C 163.223,83.7822 163.557,86.1155 163.5,88.5C 162.821,91.7068 161.654,94.7068 160,97.5C 159.333,99.5 159.333,101.5 160,103.5C 165.784,107.445 170.284,112.445 173.5,118.5C 173.629,120.216 173.962,121.883 174.5,123.5C 172.855,122.521 171.521,121.188 170.5,119.5C 168.781,122.048 167.448,121.715 166.5,118.5C 165.127,120.207 163.461,121.54 161.5,122.5C 161.721,121.265 162.388,120.265 163.5,119.5C 159.728,118.599 158.062,120.266 158.5,124.5C 157.076,122.485 156.41,120.152 156.5,117.5C 154.5,117.5 152.5,117.5 150.5,117.5C 150.886,121.349 152.22,124.682 154.5,127.5C 152.376,126.969 150.876,125.635 150,123.5C 149.333,120.833 149.333,118.167 150,115.5C 154.434,115.884 158.934,115.884 163.5,115.5C 163.703,113.61 163.037,112.11 161.5,111C 158.968,109.235 156.301,107.735 153.5,106.5C 152.071,105.766 151.071,104.599 150.5,103C 152.368,102.616 153.701,101.116 154.5,98.5C 155.748,97.6661 156.415,96.3328 156.5,94.5C 156.284,92.6161 155.617,90.9494 154.5,89.5C 155.263,88.2807 156.263,87.2807 157.5,86.5C 157.376,85.8933 157.043,85.56 156.5,85.5C 155.567,82.6298 153.9,80.2964 151.5,78.5C 151.489,76.9826 150.823,75.8159 149.5,75C 145.307,71.6349 141.307,68.1349 137.5,64.5C 140.659,64.8026 143.992,65.4692 147.5,66.5C 147.5,65.1667 147.5,63.8333 147.5,62.5 Z"/></g>
<g><path style="opacity:1" fill="#edeeee" d="M 115.5,107.5 C 119.061,109.55 122.228,112.217 125,115.5C 127.783,119.951 130.95,124.117 134.5,128C 127.167,128.667 119.833,128.667 112.5,128C 108.376,125.58 106.543,122.08 107,117.5C 108,119.833 109.667,121.5 112,122.5C 112.219,121.062 112.719,119.729 113.5,118.5C 114.869,120.124 116.536,120.624 118.5,120C 116.198,117.208 114.031,114.375 112,111.5C 109.989,113.932 108.489,113.432 107.5,110C 107.905,109.055 108.572,108.388 109.5,108C 111.473,107.505 113.473,107.338 115.5,107.5 Z"/></g>
<g><path style="opacity:1" fill="#7e1846" d="M 20.5,94.5 C 23.0821,94.0254 25.0821,94.6921 26.5,96.5C 24.3994,99.248 22.5661,102.248 21,105.5C 18.6664,111.729 16.8331,118.063 15.5,124.5C 13.8819,127.171 13.2153,130.171 13.5,133.5C 15.5,133.5 17.5,133.5 19.5,133.5C 18.158,134.793 16.4913,135.626 14.5,136C 15.8333,136.667 17.1667,137.333 18.5,138C 15.7717,140.865 12.4383,142.365 8.5,142.5C 4.45928,134.692 1.79262,126.359 0.5,117.5C 2.11723,118.038 3.7839,118.371 5.5,118.5C 5.75642,116.208 5.42308,114.041 4.5,112C 6.11238,111.28 7.61238,111.446 9,112.5C 9.66667,111.167 10.3333,109.833 11,108.5C 11.4152,110.291 12.4152,111.624 14,112.5C 14.8845,109.065 16.0512,105.732 17.5,102.5C 18.7202,101.289 19.8869,101.289 21,102.5C 21.1405,100.744 20.6405,99.0778 19.5,97.5C 21.435,96.787 21.7683,95.787 20.5,94.5 Z"/></g>
<g><path style="opacity:1" fill="#752677" d="M 179.5,119.5 C 181.117,120.589 181.95,122.256 182,124.5C 182.805,127.696 182.638,130.696 181.5,133.5C 181.806,130.615 181.473,127.948 180.5,125.5C 180.768,123.901 180.434,122.568 179.5,121.5C 179.5,120.833 179.5,120.167 179.5,119.5 Z"/></g>
<g><path style="opacity:1" fill="#8a8f98" d="M 90.5,117.5 C 90.2155,119.415 90.5489,121.081 91.5,122.5C 91.2172,123.289 90.7172,123.956 90,124.5C 89.2042,121.961 89.3709,119.628 90.5,117.5 Z"/></g>
<g><path style="opacity:1" fill="#979aa1" d="M 94.5,128.5 C 93.8333,128.5 93.5,128.167 93.5,127.5C 93.8016,124.941 93.4682,122.607 92.5,120.5C 92.7828,119.711 93.2828,119.044 94,118.5C 94.4983,121.817 94.665,125.15 94.5,128.5 Z"/></g>
<g><path style="opacity:1" fill="#d80f36" d="M 179.5,121.5 C 180.434,122.568 180.768,123.901 180.5,125.5C 180.808,127.924 180.474,130.257 179.5,132.5C 176.409,128.646 175.743,124.313 177.5,119.5C 178.182,120.243 178.849,120.909 179.5,121.5 Z"/></g>
<g><path style="opacity:1" fill="#464750" d="M 19.5,124.5 C 19.552,126.903 19.2186,129.236 18.5,131.5C 17.1667,131.5 15.8333,131.5 14.5,131.5C 14.9926,129.194 15.3259,126.861 15.5,124.5C 16.404,123.791 16.7373,122.791 16.5,121.5C 17.5,121.5 18.5,121.5 19.5,121.5C 19.5,122.5 19.5,123.5 19.5,124.5 Z"/></g>
<g><path style="opacity:1" fill="#434857" d="M 55.5,133.5 C 45.2701,131.026 34.9367,129.026 24.5,127.5C 33.2331,127.272 41.8998,128.439 50.5,131C 52.4913,131.374 54.158,132.207 55.5,133.5 Z"/></g>
<g><path style="opacity:1" fill="#4d5263" d="M 55.5,133.5 C 59.2971,133.872 62.6305,135.206 65.5,137.5C 62.8333,136.833 60.1667,136.167 57.5,135.5C 56.8333,134.833 56.1667,134.167 55.5,133.5 Z"/></g>
<g><path style="opacity:1" fill="#c52545" d="M 174.5,110.5 C 177.09,112.888 178.757,115.888 179.5,119.5C 179.5,120.167 179.5,120.833 179.5,121.5C 178.849,120.909 178.182,120.243 177.5,119.5C 175.743,124.313 176.409,128.646 179.5,132.5C 180.474,130.257 180.808,127.924 180.5,125.5C 181.473,127.948 181.806,130.615 181.5,133.5C 176.175,133.681 171.508,135.348 167.5,138.5C 165.938,138.733 164.605,139.4 163.5,140.5C 162.662,140.158 162.328,139.492 162.5,138.5C 166.112,135.022 170.112,132.022 174.5,129.5C 175.793,127.364 175.793,125.364 174.5,123.5C 173.962,121.883 173.629,120.216 173.5,118.5C 174.5,118.5 175.5,118.5 176.5,118.5C 176.713,115.549 176.046,112.882 174.5,110.5 Z"/></g>
<g><path style="opacity:1" fill="#612472" d="M 181.5,133.5 C 181.5,133.833 181.5,134.167 181.5,134.5C 176.651,135.385 171.984,136.719 167.5,138.5C 171.508,135.348 176.175,133.681 181.5,133.5 Z"/></g>
<g><path style="opacity:1" fill="#0c1124" d="M 158.5,124.5 C 160.179,124.715 161.179,124.048 161.5,122.5C 163.461,121.54 165.127,120.207 166.5,118.5C 167.448,121.715 168.781,122.048 170.5,119.5C 171.521,121.188 172.855,122.521 174.5,123.5C 175.793,125.364 175.793,127.364 174.5,129.5C 170.112,132.022 166.112,135.022 162.5,138.5C 160.086,139.911 158.419,141.911 157.5,144.5C 152.833,147.167 149.167,150.833 146.5,155.5C 145.012,156.939 143.178,157.605 141,157.5C 135.911,156.134 130.744,155.134 125.5,154.5C 118.32,153.345 110.987,153.345 103.5,154.5C 99.4264,154.299 95.4264,153.632 91.5,152.5C 94.1191,152.024 96.1191,150.691 97.5,148.5C 96.9747,147.808 96.3081,147.308 95.5,147C 96.8333,145.667 96.8333,144.333 95.5,143C 96.0848,141.698 96.7515,140.531 97.5,139.5C 97.2865,141.144 97.6198,142.644 98.5,144C 106.953,145.706 115.119,145.539 123,143.5C 126.129,144.13 129.296,144.796 132.5,145.5C 133.62,147.596 135.12,147.93 137,146.5C 137.179,144.576 137.346,142.909 137.5,141.5C 140.021,142.785 142.687,143.452 145.5,143.5C 145.48,140.177 143.813,137.511 140.5,135.5C 140.792,134.126 141.125,132.793 141.5,131.5C 146.474,134.204 151.308,133.871 156,130.5C 156.239,129.212 155.739,128.212 154.5,127.5C 152.22,124.682 150.886,121.349 150.5,117.5C 152.5,117.5 154.5,117.5 156.5,117.5C 156.41,120.152 157.076,122.485 158.5,124.5 Z"/></g>
<g><path style="opacity:1" fill="#a22043" d="M 161.5,122.5 C 161.179,124.048 160.179,124.715 158.5,124.5C 158.062,120.266 159.728,118.599 163.5,119.5C 162.388,120.265 161.721,121.265 161.5,122.5 Z"/></g>
<g><path style="opacity:1" fill="#872549" d="M 162.5,138.5 C 162.328,139.492 162.662,140.158 163.5,140.5C 161.777,142.218 159.777,143.551 157.5,144.5C 158.419,141.911 160.086,139.911 162.5,138.5 Z"/></g>
<g><path style="opacity:1" fill="#181b25" d="M 97.5,139.5 C 99.0103,140.836 100.677,142.003 102.5,143C 109.744,143.633 116.91,143.133 124,141.5C 128.566,141.244 132.566,142.578 136,145.5C 135.805,143.255 134.638,141.422 132.5,140C 137.293,139.656 141.626,140.823 145.5,143.5C 142.687,143.452 140.021,142.785 137.5,141.5C 137.346,142.909 137.179,144.576 137,146.5C 135.12,147.93 133.62,147.596 132.5,145.5C 129.296,144.796 126.129,144.13 123,143.5C 115.119,145.539 106.953,145.706 98.5,144C 97.6198,142.644 97.2865,141.144 97.5,139.5 Z"/></g>
<g><path style="opacity:1" fill="#070510" d="M 57.5,135.5 C 60.1667,136.167 62.8333,136.833 65.5,137.5C 75.313,142.641 84.313,148.975 92.5,156.5C 90.9547,157.452 89.288,157.785 87.5,157.5C 86.1092,155.11 84.1092,153.443 81.5,152.5C 78.5249,149.677 75.1916,147.344 71.5,145.5C 67.8775,142.946 63.8775,140.946 59.5,139.5C 58.5,138.833 57.5,138.167 56.5,137.5C 56.3284,136.508 56.6618,135.842 57.5,135.5 Z"/></g>
<g><path style="opacity:1" fill="#4e2873" d="M 71.5,145.5 C 75.1916,147.344 78.5249,149.677 81.5,152.5C 75.9618,152.959 74.6285,155.459 77.5,160C 77.3333,160.833 77.1667,161.667 77,162.5C 76.6667,162.167 76.3333,161.833 76,161.5C 75.1841,162.823 74.0174,163.489 72.5,163.5C 71.1167,160.09 68.7834,159.09 65.5,160.5C 63.1334,159.129 61.4667,157.129 60.5,154.5C 61.2634,153.281 62.2634,152.281 63.5,151.5C 63.1667,150.833 62.8333,150.167 62.5,149.5C 63.9079,148.757 65.2412,147.923 66.5,147C 64.275,146.124 62.275,144.957 60.5,143.5C 60.8333,143.167 61.1667,142.833 61.5,142.5C 64.8548,143.516 68.1881,144.516 71.5,145.5 Z"/></g>
<g><path style="opacity:1" fill="#59205e" d="M 50.5,136.5 C 52.5648,136.517 54.5648,136.85 56.5,137.5C 57.5,138.167 58.5,138.833 59.5,139.5C 57.1432,139.337 54.8098,139.503 52.5,140C 53.1667,141.333 54.1667,142.333 55.5,143C 53.9095,144.046 52.4095,145.213 51,146.5C 51.4623,149.666 52.2956,152.832 53.5,156C 52.9923,157.893 51.9923,159.393 50.5,160.5C 49.8826,160.389 49.3826,160.056 49,159.5C 47.1641,162.17 44.6641,163.837 41.5,164.5C 41.2615,161.852 39.9282,160.018 37.5,159C 42.7719,158.52 43.7719,156.186 40.5,152C 41.3757,150.415 42.7091,149.415 44.5,149C 43.5,148.667 42.5,148.333 41.5,148C 42.6105,145.263 42.7772,142.429 42,139.5C 40.9326,138.809 39.7659,138.309 38.5,138C 42.4183,136.844 46.4183,136.344 50.5,136.5 Z"/></g>
<g><path style="opacity:0.896" fill="#671746" d="M 19.5,133.5 C 23.9671,133.133 28.3004,133.633 32.5,135C 31.1667,135.333 29.8333,135.667 28.5,136C 30.3939,137.101 31.0606,138.434 30.5,140C 28.1144,140.284 27.4477,141.284 28.5,143C 22.8748,144.074 21.5414,146.908 24.5,151.5C 21.6213,152.803 20.9546,154.803 22.5,157.5C 21.6602,158.735 20.6602,159.735 19.5,160.5C 14.8195,155.143 11.1529,149.143 8.5,142.5C 12.4383,142.365 15.7717,140.865 18.5,138C 17.1667,137.333 15.8333,136.667 14.5,136C 16.4913,135.626 18.158,134.793 19.5,133.5 Z"/></g>
<g><path style="opacity:1" fill="#333394" d="M 194.5,126.5 C 192.66,130.216 190.494,133.883 188,137.5C 187.667,137.167 187.333,136.833 187,136.5C 186.313,138.568 186.48,140.568 187.5,142.5C 183.817,145.517 180.483,148.85 177.5,152.5C 172.167,155.167 166.833,157.833 161.5,160.5C 160.614,161.325 160.281,162.325 160.5,163.5C 153.932,165.138 147.265,166.138 140.5,166.5C 140.421,165.07 140.754,163.736 141.5,162.5C 139.021,161.327 136.521,161.327 134,162.5C 132.48,161.303 131.313,159.803 130.5,158C 129.5,157.667 128.5,157.333 127.5,157C 131.102,156.567 134.435,157.4 137.5,159.5C 140.145,158.892 142.812,158.392 145.5,158C 146.252,157.329 146.586,156.496 146.5,155.5C 149.167,150.833 152.833,147.167 157.5,144.5C 159.777,143.551 161.777,142.218 163.5,140.5C 164.605,139.4 165.938,138.733 167.5,138.5C 171.984,136.719 176.651,135.385 181.5,134.5C 183.405,133.536 184.405,131.869 184.5,129.5C 183.485,125.869 183.319,122.202 184,118.5C 184.951,122.027 186.284,125.36 188,128.5C 189.687,125.708 191.853,125.042 194.5,126.5 Z"/></g>
<g><path style="opacity:1" fill="#32308d" d="M 197.5,125.5 C 193.831,138.507 187.831,150.174 179.5,160.5C 179.719,159.325 179.386,158.325 178.5,157.5C 161.958,170.256 143.291,175.089 122.5,172C 116.988,169.742 111.654,167.242 106.5,164.5C 104.018,162.538 101.351,160.705 98.5,159C 100.301,156.611 102.468,156.111 105,157.5C 111.532,154.992 118.365,153.992 125.5,154.5C 130.744,155.134 135.911,156.134 141,157.5C 143.178,157.605 145.012,156.939 146.5,155.5C 146.586,156.496 146.252,157.329 145.5,158C 142.812,158.392 140.145,158.892 137.5,159.5C 134.435,157.4 131.102,156.567 127.5,157C 128.5,157.333 129.5,157.667 130.5,158C 131.313,159.803 132.48,161.303 134,162.5C 136.521,161.327 139.021,161.327 141.5,162.5C 140.754,163.736 140.421,165.07 140.5,166.5C 147.265,166.138 153.932,165.138 160.5,163.5C 160.281,162.325 160.614,161.325 161.5,160.5C 166.833,157.833 172.167,155.167 177.5,152.5C 180.483,148.85 183.817,145.517 187.5,142.5C 186.48,140.568 186.313,138.568 187,136.5C 187.333,136.833 187.667,137.167 188,137.5C 190.494,133.883 192.66,130.216 194.5,126.5C 195.391,125.89 196.391,125.557 197.5,125.5 Z"/></g>
<g><path style="opacity:1" fill="#5c194d" d="M 15.5,124.5 C 15.3259,126.861 14.9926,129.194 14.5,131.5C 15.8333,131.5 17.1667,131.5 18.5,131.5C 24.6534,132.328 30.9867,132.828 37.5,133C 42.0309,133.907 46.3642,135.073 50.5,136.5C 46.4183,136.344 42.4183,136.844 38.5,138C 39.7659,138.309 40.9326,138.809 42,139.5C 42.7772,142.429 42.6105,145.263 41.5,148C 42.5,148.333 43.5,148.667 44.5,149C 42.7091,149.415 41.3757,150.415 40.5,152C 43.7719,156.186 42.7719,158.52 37.5,159C 39.9282,160.018 41.2615,161.852 41.5,164.5C 42.3461,166.937 43.6795,169.104 45.5,171C 44.552,171.483 43.552,171.649 42.5,171.5C 42.5,172.5 42.5,173.5 42.5,174.5C 41.1779,174.67 40.0113,174.337 39,173.5C 38.4115,175.863 36.9115,176.863 34.5,176.5C 28.7949,171.796 23.7949,166.463 19.5,160.5C 20.6602,159.735 21.6602,158.735 22.5,157.5C 20.9546,154.803 21.6213,152.803 24.5,151.5C 21.5414,146.908 22.8748,144.074 28.5,143C 27.4477,141.284 28.1144,140.284 30.5,140C 31.0606,138.434 30.3939,137.101 28.5,136C 29.8333,135.667 31.1667,135.333 32.5,135C 28.3004,133.633 23.9671,133.133 19.5,133.5C 17.5,133.5 15.5,133.5 13.5,133.5C 13.2153,130.171 13.8819,127.171 15.5,124.5 Z"/></g>
<g><path style="opacity:0.986" fill="#302e86" d="M 179.5,160.5 C 176.542,165.126 172.876,169.126 168.5,172.5C 168.44,171.957 168.107,171.624 167.5,171.5C 160.16,173.774 152.826,175.941 145.5,178C 139.229,178.268 133.062,178.434 127,178.5C 118.255,175.525 109.755,171.858 101.5,167.5C 100.479,166.998 100.312,166.332 101,165.5C 103.144,166.844 104.977,166.51 106.5,164.5C 111.654,167.242 116.988,169.742 122.5,172C 143.291,175.089 161.958,170.256 178.5,157.5C 179.386,158.325 179.719,159.325 179.5,160.5 Z"/></g>
<g><path style="opacity:1" fill="#4e2264" d="M 59.5,139.5 C 63.8775,140.946 67.8775,142.946 71.5,145.5C 68.1881,144.516 64.8548,143.516 61.5,142.5C 61.1667,142.833 60.8333,143.167 60.5,143.5C 62.275,144.957 64.275,146.124 66.5,147C 65.2412,147.923 63.9079,148.757 62.5,149.5C 62.8333,150.167 63.1667,150.833 63.5,151.5C 62.2634,152.281 61.2634,153.281 60.5,154.5C 61.4667,157.129 63.1334,159.129 65.5,160.5C 66.2186,163.073 67.2186,165.573 68.5,168C 66.6243,168.918 65.6243,170.418 65.5,172.5C 64.8826,172.389 64.3826,172.056 64,171.5C 62.8904,173.037 61.3904,173.703 59.5,173.5C 58.1618,171.33 56.3284,169.664 54,168.5C 53.5391,165.423 52.3724,162.756 50.5,160.5C 51.9923,159.393 52.9923,157.893 53.5,156C 52.2956,152.832 51.4623,149.666 51,146.5C 52.4095,145.213 53.9095,144.046 55.5,143C 54.1667,142.333 53.1667,141.333 52.5,140C 54.8098,139.503 57.1432,139.337 59.5,139.5 Z"/></g>
<g><path style="opacity:0.983" fill="#312b80" d="M 125.5,154.5 C 118.365,153.992 111.532,154.992 105,157.5C 102.468,156.111 100.301,156.611 98.5,159C 101.351,160.705 104.018,162.538 106.5,164.5C 104.977,166.51 103.144,166.844 101,165.5C 100.312,166.332 100.479,166.998 101.5,167.5C 109.755,171.858 118.255,175.525 127,178.5C 133.062,178.434 139.229,178.268 145.5,178C 152.826,175.941 160.16,173.774 167.5,171.5C 168.107,171.624 168.44,171.957 168.5,172.5C 165.71,176.628 162.043,179.628 157.5,181.5C 144.242,183.379 130.909,183.879 117.5,183C 109.731,180.02 102.398,176.187 95.5,171.5C 94.1468,170.476 93.4802,169.143 93.5,167.5C 92.1667,167.5 90.8333,167.5 89.5,167.5C 89.3398,165.801 89.5065,164.134 90,162.5C 91.0495,163.517 92.2161,163.684 93.5,163C 93.4698,161.571 93.8031,160.071 94.5,158.5C 97.4088,156.937 100.409,155.604 103.5,154.5C 110.987,153.345 118.32,153.345 125.5,154.5 Z"/></g>
<g><path style="opacity:0.964" fill="#44194f" d="M 50.5,160.5 C 52.3724,162.756 53.5391,165.423 54,168.5C 56.3284,169.664 58.1618,171.33 59.5,173.5C 57.1384,176.225 54.1384,178.058 50.5,179C 52.4136,180.413 53.7469,182.247 54.5,184.5C 55.7287,185.281 57.062,185.781 58.5,186C 57.273,187.587 57.6063,188.921 59.5,190C 58.5842,190.278 57.9175,190.778 57.5,191.5C 49.0213,187.677 41.3547,182.677 34.5,176.5C 36.9115,176.863 38.4115,175.863 39,173.5C 40.0113,174.337 41.1779,174.67 42.5,174.5C 42.5,173.5 42.5,172.5 42.5,171.5C 43.552,171.649 44.552,171.483 45.5,171C 43.6795,169.104 42.3461,166.937 41.5,164.5C 44.6641,163.837 47.1641,162.17 49,159.5C 49.3826,160.056 49.8826,160.389 50.5,160.5 Z"/></g>
<g><path style="opacity:1" fill="#3c1c59" d="M 65.5,172.5 C 69.4462,175.881 71.7795,180.214 72.5,185.5C 73.5,185.5 74.5,185.5 75.5,185.5C 75.238,186.978 75.5713,188.311 76.5,189.5C 77.7193,190.263 78.7193,191.263 79.5,192.5C 80.086,192.291 80.586,191.957 81,191.5C 83.8755,193.761 86.3755,196.428 88.5,199.5C 86.8333,199.5 85.1667,199.5 83.5,199.5C 74.7517,197.48 66.085,194.813 57.5,191.5C 57.9175,190.778 58.5842,190.278 59.5,190C 57.6063,188.921 57.273,187.587 58.5,186C 57.062,185.781 55.7287,185.281 54.5,184.5C 53.7469,182.247 52.4136,180.413 50.5,179C 54.1384,178.058 57.1384,176.225 59.5,173.5C 61.3904,173.703 62.8904,173.037 64,171.5C 64.3826,172.056 64.8826,172.389 65.5,172.5 Z"/></g>
<g><path style="opacity:0.971" fill="#342876" d="M 81.5,152.5 C 84.1092,153.443 86.1092,155.11 87.5,157.5C 89.6074,158.468 91.9407,158.802 94.5,158.5C 93.8031,160.071 93.4698,161.571 93.5,163C 92.2161,163.684 91.0495,163.517 90,162.5C 89.5065,164.134 89.3398,165.801 89.5,167.5C 90.8333,167.5 92.1667,167.5 93.5,167.5C 93.4802,169.143 94.1468,170.476 95.5,171.5C 102.398,176.187 109.731,180.02 117.5,183C 130.909,183.879 144.242,183.379 157.5,181.5C 155.353,183.47 153.02,185.303 150.5,187C 145.742,189.712 140.742,191.879 135.5,193.5C 125.964,193.932 116.63,192.765 107.5,190C 105.124,187.32 102.124,185.987 98.5,186C 93.9523,181.558 88.6189,178.391 82.5,176.5C 79.0876,172.105 75.7543,167.772 72.5,163.5C 74.0174,163.489 75.1841,162.823 76,161.5C 76.3333,161.833 76.6667,162.167 77,162.5C 77.1667,161.667 77.3333,160.833 77.5,160C 74.6285,155.459 75.9618,152.959 81.5,152.5 Z"/></g>
<g><path style="opacity:0.937" fill="#352269" d="M 72.5,163.5 C 75.7543,167.772 79.0876,172.105 82.5,176.5C 88.6189,178.391 93.9523,181.558 98.5,186C 102.124,185.987 105.124,187.32 107.5,190C 116.63,192.765 125.964,193.932 135.5,193.5C 129.089,196.381 122.422,198.381 115.5,199.5C 106.5,199.5 97.5,199.5 88.5,199.5C 86.3755,196.428 83.8755,193.761 81,191.5C 80.586,191.957 80.086,192.291 79.5,192.5C 78.7193,191.263 77.7193,190.263 76.5,189.5C 75.5713,188.311 75.238,186.978 75.5,185.5C 74.5,185.5 73.5,185.5 72.5,185.5C 71.7795,180.214 69.4462,175.881 65.5,172.5C 65.6243,170.418 66.6243,168.918 68.5,168C 67.2186,165.573 66.2186,163.073 65.5,160.5C 68.7834,159.09 71.1167,160.09 72.5,163.5 Z"/></g>
</svg>
