<?xml version="1.0" standalone="no"?>
<!DOCTYPE svg PUBLIC "-//W3C//DTD SVG 20010904//EN"
 "http://www.w3.org/TR/2001/REC-SVG-20010904/DTD/svg10.dtd">
<svg version="1.0" xmlns="http://www.w3.org/2000/svg"
 width="200.000000pt" height="200.000000pt" viewBox="0 0 200.000000 200.000000"
 preserveAspectRatio="xMidYMid meet">

<g transform="translate(0.000000,200.000000) scale(0.100000,-0.100000)"
fill="#000000" stroke="none">
<path d="M700 1650 c-171 -99 -280 -167 -287 -182 -7 -13 -13 -46 -13 -74 l0
-52 72 -42 71 -43 -26 -14 c-15 -7 -27 -17 -27 -21 0 -4 21 -20 46 -35 l45
-27 62 19 c52 16 63 23 71 47 19 61 49 135 57 140 5 3 4 -7 -1 -21 -6 -15 -8
-31 -4 -36 9 -14 52 -10 80 7 l25 17 -23 26 c-12 14 -5 9 17 -11 l40 -37 30
19 c17 11 32 31 35 46 5 30 30 46 30 20 0 -22 15 -20 61 6 35 19 40 20 61 6
21 -14 27 -14 52 -1 89 47 188 -71 126 -150 -43 -55 -116 -56 -159 -1 l-21 27
0 -27 c0 -14 -4 -34 -10 -44 -5 -9 -17 -34 -26 -55 -9 -22 -28 -44 -41 -50
-12 -5 -23 -14 -23 -19 0 -13 53 -63 70 -65 8 -1 38 -8 67 -16 61 -16 83 -8
83 32 0 37 21 53 74 58 39 3 50 -1 106 -44 94 -71 148 -154 149 -233 1 -45
-32 -116 -72 -158 -35 -37 -33 -42 38 -81 22 -12 31 -15 20 -7 -63 48 -61 45
-45 59 26 21 46 59 68 129 20 61 22 89 22 292 l0 225 -30 16 c-37 19 -37 26 0
47 27 15 30 22 30 63 0 26 -4 55 -10 65 -13 25 -561 340 -591 340 -13 0 -148
-72 -299 -160z m537 -467 c-4 -3 -19 -2 -34 2 l-28 8 30 6 c28 6 45 -3 32 -16z
m-70 -22 c9 -11 20 -18 25 -15 4 3 8 0 8 -6 0 -6 4 -9 8 -6 5 3 9 -2 9 -10 0
-17 -96 -48 -121 -38 -9 4 -15 9 -14 13 2 3 12 23 23 44 21 41 37 46 62 18z
m93 -17 c0 -2 -7 -4 -15 -4 -8 0 -15 4 -15 10 0 5 7 7 15 4 8 -4 15 -8 15 -10z
m6 -39 c-9 -14 -28 -30 -42 -35 -41 -16 -51 -11 -19 9 17 10 39 28 49 40 25
28 33 19 12 -14z m-186 -45 c0 -5 -5 -10 -11 -10 -5 0 -7 5 -4 10 3 6 8 10 11
10 2 0 4 -4 4 -10z m440 -400 c-20 -28 -40 -46 -40 -37 0 6 53 67 58 67 2 0
-6 -13 -18 -30z"/>
<path d="M1112 1320 c0 -19 2 -27 5 -17 2 9 2 25 0 35 -3 9 -5 1 -5 -18z"/>
<path d="M1220 1324 c0 -9 7 -14 17 -12 25 5 28 28 4 28 -12 0 -21 -6 -21 -16z"/>
<path d="M920 1275 c-50 -51 -49 -62 2 -12 22 22 42 32 61 31 25 -1 25 -1 2 3
-14 2 -23 9 -20 14 12 19 -2 8 -45 -36z"/>
<path d="M1068 1215 c3 -28 -2 -40 -26 -65 -17 -16 -27 -30 -23 -30 12 0 47
42 65 77 15 30 15 33 -2 42 -16 8 -17 6 -14 -24z"/>
<path d="M970 1230 c-8 -5 -16 -14 -16 -20 -3 -23 -6 -24 -14 -5 -7 15 -9 16
-9 4 -1 -9 6 -22 14 -29 18 -15 51 -8 47 11 -2 7 -4 22 -5 31 -1 10 -1 18 -2
18 0 0 -7 -5 -15 -10z m13 -47 c-7 -2 -19 -2 -25 0 -7 3 -2 5 12 5 14 0 19 -2
13 -5z"/>
<path d="M891 1204 c0 -11 3 -14 6 -6 3 7 2 16 -1 19 -3 4 -6 -2 -5 -13z"/>
<path d="M335 1182 c-6 -4 -12 -17 -12 -30 -2 -18 1 -21 11 -13 7 6 15 10 17
8 2 -1 -1 3 -8 9 -9 8 -10 13 -1 22 13 13 9 16 -7 4z"/>
<path d="M370 1136 c0 -3 9 -10 20 -16 11 -6 20 -8 20 -6 0 3 -9 10 -20 16
-11 6 -20 8 -20 6z"/>
<path d="M355 1115 c11 -9 27 -20 35 -25 12 -7 12 -10 0 -26 -14 -16 -13 -16
18 0 33 17 40 30 22 41 -6 4 -7 -1 -3 -12 5 -14 -2 -12 -43 11 -27 15 -40 20
-29 11z"/>
<path d="M215 1110 c-3 -6 1 -7 9 -4 9 3 31 -4 51 -16 19 -12 35 -19 35 -17 0
8 -66 47 -78 47 -6 0 -14 -4 -17 -10z"/>
<path d="M168 1084 c-38 -20 -36 -28 2 -9 17 9 30 18 30 20 0 7 -1 6 -32 -11z"/>
<path d="M334 1056 c11 -9 24 -16 30 -16 12 0 7 5 -24 19 -24 11 -24 11 -6 -3z"/>
<path d="M119 1058 c-1 -2 -3 -15 -4 -29 -3 -21 4 -30 36 -48 35 -20 51 -41
31 -41 -5 0 -17 -7 -28 -16 -10 -9 0 -5 23 8 52 28 55 36 23 56 l-25 14 25
-21 c35 -29 8 -26 -41 5 -43 27 -48 44 -7 24 22 -11 22 -10 4 4 -11 9 -24 16
-29 16 -5 0 -7 7 -3 15 4 12 0 23 -5 13z"/>
<path d="M877 1018 c7 -8 9 -19 5 -24 -4 -5 -3 -6 2 -2 20 16 39 -47 37 -120
-2 -50 1 -72 8 -67 6 3 11 40 11 83 0 82 -12 111 -53 134 -19 10 -20 9 -10 -4z"/>
<path d="M625 1010 c-3 -6 1 -7 9 -4 18 7 21 14 7 14 -6 0 -13 -4 -16 -10z"/>
<path d="M578 984 c-38 -20 -36 -28 2 -9 17 9 30 18 30 20 0 7 -1 6 -32 -11z"/>
<path d="M575 953 c-70 -41 -77 -47 -61 -59 16 -12 16 -14 -9 -27 -27 -14 -26
-15 224 -166 138 -84 260 -155 270 -158 20 -5 230 114 274 155 65 61 74 123
27 194 -17 26 -38 49 -47 52 -8 4 1 -12 21 -34 20 -22 36 -43 36 -48 0 -4 -12
8 -26 26 -33 42 -44 41 -44 -6 0 -37 -1 -38 -98 -94 -53 -30 -107 -61 -120
-67 -21 -11 -36 -5 -140 55 -101 59 -142 90 -133 102 1 2 -13 13 -31 26 -18
12 -35 31 -37 41 -2 11 -9 28 -15 37 -11 15 -19 12 -91 -29z"/>
<path d="M514 944 c-18 -14 -18 -15 4 -4 12 6 22 13 22 15 0 8 -5 6 -26 -11z"/>
<path d="M1673 945 c-3 -9 -3 -18 -1 -21 3 -3 8 4 11 16 6 23 -1 27 -10 5z"/>
<path d="M1826 933 c-6 -14 -5 -15 5 -6 7 7 10 15 7 18 -3 3 -9 -2 -12 -12z"/>
<path d="M107 898 c-35 -27 -13 -51 121 -133 174 -107 192 -117 192 -111 0 2
-73 48 -162 102 -88 54 -156 100 -150 102 6 2 22 -4 36 -14 14 -9 26 -14 26
-11 0 3 -16 15 -35 27 -33 21 -35 23 -18 36 10 7 15 14 12 14 -3 0 -13 -6 -22
-12z"/>
<path d="M180 826 c0 -3 9 -10 20 -16 11 -6 20 -8 20 -6 0 3 -9 10 -20 16 -11
6 -20 8 -20 6z"/>
<path d="M230 796 c0 -3 9 -10 20 -16 11 -6 20 -8 20 -6 0 3 -9 10 -20 16 -11
6 -20 8 -20 6z"/>
<path d="M280 766 c0 -3 9 -10 20 -16 11 -6 20 -8 20 -6 0 3 -9 10 -20 16 -11
6 -20 8 -20 6z"/>
<path d="M349 723 c13 -10 43 -28 65 -41 23 -13 30 -15 17 -5 -13 10 -43 28
-65 41 -23 13 -30 15 -17 5z"/>
<path d="M460 656 c0 -3 9 -10 20 -16 11 -6 20 -8 20 -6 0 3 -9 10 -20 16 -11
6 -20 8 -20 6z"/>
<path d="M430 647 c0 -3 39 -29 88 -58 48 -29 97 -59 110 -67 12 -8 22 -12 22
-9 0 3 -39 29 -87 58 -49 29 -98 59 -110 67 -13 8 -23 12 -23 9z"/>
<path d="M510 626 c0 -3 9 -10 20 -16 11 -6 20 -8 20 -6 0 3 -9 10 -20 16 -11
6 -20 8 -20 6z"/>
<path d="M579 583 c13 -10 43 -28 65 -41 23 -13 30 -15 17 -5 -13 10 -43 28
-65 41 -23 13 -30 15 -17 5z"/>
<path d="M1584 552 c3 -6 1 -14 -5 -18 -8 -5 -8 -9 1 -14 8 -5 -3 -17 -34 -35
-61 -36 -59 -44 3 -9 36 21 49 33 49 51 0 13 -5 26 -11 30 -5 3 -7 1 -3 -5z"/>
<path d="M1291 518 c-32 -20 -32 -22 -15 -35 11 -8 28 -19 39 -24 l20 -10 -20
17 c-12 10 -16 18 -9 21 6 2 20 11 30 19 16 13 15 13 -13 -1 -50 -24 -62 -17
-18 10 22 14 36 25 30 25 -5 0 -25 -10 -44 -22z"/>
<path d="M1350 536 c0 -2 7 -7 16 -10 8 -3 12 -2 9 4 -6 10 -25 14 -25 6z"/>
<path d="M690 516 c0 -3 9 -10 20 -16 11 -6 20 -8 20 -6 0 3 -9 10 -20 16 -11
6 -20 8 -20 6z"/>
<path d="M1390 516 c0 -3 9 -10 20 -16 11 -6 20 -8 20 -6 0 3 -9 10 -20 16
-11 6 -20 8 -20 6z"/>
<path d="M1534 504 c-18 -14 -18 -15 4 -4 12 6 22 13 22 15 0 8 -5 6 -26 -11z"/>
<path d="M660 507 c0 -3 51 -36 113 -73 61 -37 122 -74 135 -82 12 -8 22 -12
22 -9 0 3 -51 36 -112 73 -62 37 -123 74 -135 82 -13 8 -23 12 -23 9z"/>
<path d="M1360 507 c0 -6 98 -67 107 -67 8 0 -13 15 -69 49 -21 12 -38 20 -38
18z"/>
<path d="M740 486 c0 -3 9 -10 20 -16 11 -6 20 -8 20 -6 0 3 -9 10 -20 16 -11
6 -20 8 -20 6z"/>
<path d="M1447 479 c7 -7 15 -10 18 -7 3 3 -2 9 -12 12 -14 6 -15 5 -6 -5z"/>
<path d="M1490 480 c-9 -6 -10 -10 -3 -10 6 0 15 5 18 10 8 12 4 12 -15 0z"/>
<path d="M524 444 c-18 -14 -18 -15 4 -4 12 6 22 13 22 15 0 8 -5 6 -26 -11z"/>
<path d="M790 456 c0 -3 9 -10 20 -16 11 -6 20 -8 20 -6 0 3 -9 10 -20 16 -11
6 -20 8 -20 6z"/>
<path d="M1340 447 c0 -3 12 -12 26 -22 15 -9 23 -12 20 -6 -7 11 -46 35 -46
28z"/>
<path d="M859 413 c13 -10 43 -28 65 -41 23 -13 30 -15 17 -5 -13 10 -43 28
-65 41 -23 13 -30 15 -17 5z"/>
<path d="M454 406 c-16 -13 -17 -17 -5 -28 12 -11 13 -11 6 0 -4 8 0 19 11 27
11 8 16 15 13 15 -3 0 -14 -6 -25 -14z"/>
<path d="M1078 394 c-38 -20 -36 -28 2 -9 17 9 30 18 30 20 0 7 -1 6 -32 -11z"/>
<path d="M1150 406 c0 -3 9 -10 20 -16 11 -6 20 -8 20 -6 0 3 -9 10 -20 16
-11 6 -20 8 -20 6z"/>
<path d="M1338 394 c-16 -8 -28 -17 -28 -20 0 -2 14 2 30 11 54 28 31 -2 -26
-35 l-56 -31 -60 35 c-61 37 -82 43 -92 27 -4 -5 2 -7 12 -4 10 2 45 -12 79
-32 l61 -36 53 28 c70 37 82 48 66 61 -8 7 -21 6 -39 -4z"/>
<path d="M726 387 c3 -10 9 -15 12 -12 3 3 0 11 -7 18 -10 9 -11 8 -5 -6z"/>
<path d="M1200 376 c0 -3 9 -10 20 -16 11 -6 20 -8 20 -6 0 3 -9 10 -20 16
-11 6 -20 8 -20 6z"/>
<path d="M694 354 c-18 -14 -18 -15 4 -4 12 6 22 13 22 15 0 8 -5 6 -26 -11z"/>
<path d="M1014 354 c-18 -14 -18 -15 4 -4 12 6 22 13 22 15 0 8 -5 6 -26 -11z"/>
<path d="M1041 343 c-39 -23 -48 -25 -75 -15 -28 10 -29 10 -12 -3 11 -8 26
-15 34 -15 13 0 102 48 102 56 0 6 -3 5 -49 -23z"/>
<path d="M1270 355 c-14 -8 -20 -14 -14 -15 5 0 19 7 30 15 24 18 16 19 -16 0z"/>
<path d="M520 336 c0 -3 9 -10 20 -16 11 -6 20 -8 20 -6 0 3 -9 10 -20 16 -11
6 -20 8 -20 6z"/>
<path d="M610 310 c-9 -6 -10 -10 -3 -10 6 0 15 5 18 10 8 12 4 12 -15 0z"/>
</g>
</svg>
