<svg width="200" height="200" viewBox="0 0 200 200" fill="none" xmlns="http://www.w3.org/2000/svg">
<rect width="200" height="200" rx="100" fill="url(#paint0_linear_1903_12514)"/>
<path d="M170.181 90.3261C168.99 82.1666 166.275 74.3042 162.177 67.1495C158.34 60.4073 153.357 54.3865 147.452 49.3577C144.681 46.999 141.726 44.8663 138.614 42.9803C135.556 41.1268 132.362 39.5094 129.058 38.1424V38.1424L131.697 34L116.512 37.7947L121.574 49.8675L124.884 44.6717C127.64 45.9052 130.296 47.3523 132.827 48.9998C135.385 50.6629 137.801 52.5339 140.052 54.5939C144.792 58.9323 148.728 64.0757 151.676 69.7862C154.684 75.6025 156.586 81.9275 157.285 88.4389C158.013 95.3229 157.422 102.283 155.543 108.945C153.508 116.179 150.068 122.94 145.42 128.844C140.339 135.309 133.977 140.653 126.733 144.542L118.965 118.948C119.684 118.668 120.376 118.381 121.04 118.094C121.705 117.807 122.34 117.51 122.947 117.213C123.554 116.916 124.131 116.619 124.678 116.318C125.225 116.018 125.748 115.714 126.237 115.407C127.311 114.744 128.326 113.992 129.274 113.158C130.189 112.36 131.031 111.481 131.788 110.532C132.53 109.599 133.187 108.601 133.752 107.551C134.319 106.488 134.794 105.379 135.172 104.235C135.549 103.098 135.816 101.927 135.969 100.738C136.12 99.5603 136.159 98.3712 136.087 97.1863C136.011 95.9744 135.831 94.7713 135.547 93.5908C135.248 92.3562 134.856 91.1463 134.373 89.9716C133.595 87.9964 132.535 86.145 131.224 84.4754C130.008 82.9339 128.552 81.5979 126.912 80.5187C125.221 79.4229 123.381 78.5759 121.449 78.0035C119.29 77.3675 117.067 76.9712 114.822 76.8219C116.17 75.8591 117.387 74.7241 118.442 73.4458C119.336 72.3524 120.03 71.1102 120.494 69.7761C120.918 68.521 121.098 67.1962 121.024 65.8733C120.935 64.4664 120.621 63.0827 120.096 61.7748C119.818 61.0602 119.488 60.3673 119.107 59.7019C118.741 59.0573 118.326 58.4421 117.865 57.862C117.408 57.2874 116.908 56.748 116.37 56.2482C115.822 55.7453 115.239 55.2817 114.626 54.8606L114.288 54.6176L113.904 54.3644C113.782 54.2867 113.657 54.2091 113.529 54.1348C113.401 54.0605 113.276 53.9862 113.148 53.912C112.363 53.4724 111.55 53.0845 110.715 52.7506C109.92 52.4343 109.103 52.1738 108.272 51.9707C106.646 51.5812 104.971 51.4299 103.301 51.5217C102.964 51.5217 102.627 51.569 102.255 51.6028C101.884 51.6365 101.513 51.677 101.118 51.7243C100.723 51.7716 100.312 51.8256 99.8832 51.8863C99.4547 51.9471 99.0194 52.0146 98.5638 52.0855L96.0196 43.7197L88.5453 45.59L90.7016 53.7195H90.6543L90.1549 53.8411L89.6488 53.9626L89.1359 54.0875L88.6162 54.2192L83.8482 55.4109L79.3097 35.9547C78.7226 36.137 78.1411 36.3261 77.5652 36.5219C76.9848 36.7177 76.4111 36.9203 75.8375 37.1296C75.2638 37.3389 74.697 37.555 74.1334 37.7778C73.5699 38.0006 73.003 38.2302 72.4463 38.453C67.2805 40.6373 62.3844 43.4117 57.8555 46.721C53.176 50.1286 48.925 54.0893 45.1949 58.5169C42.8283 61.318 40.6846 64.3003 38.7836 67.4365C36.849 70.6313 35.1787 73.9792 33.7895 77.4465C29.3114 88.619 27.939 100.796 29.8179 112.686C31.1632 121.131 34.1668 129.226 38.6554 136.504C41.0802 140.442 43.9074 144.118 47.0913 147.473L41.0377 156.48L63.4435 150.801L61.2062 126.409L55.4327 135.018C52.8293 132.433 50.4925 129.592 48.4579 126.538C44.6556 120.833 42.0032 114.441 40.6496 107.72C40.0036 104.506 39.6524 101.24 39.6002 97.9627C39.5011 91.9927 40.3835 86.047 42.212 80.3634C43.907 75.101 46.3638 70.1156 49.504 65.5661C52.5313 61.1729 56.1385 57.2095 60.2277 53.7837C64.3327 50.3443 68.8705 47.458 73.7251 45.1984L76.0568 57.3758L59.4516 61.5317L60.501 70.9847L68.7041 68.9287L75.5709 115.106L65.6807 117.601L67.3678 132.739L89.426 127.162L92.4967 143.199L103.413 140.434L99.7583 124.549L106.089 122.949L106.78 122.773L107.455 122.594L108.13 122.416L108.825 122.233L115.945 149.123L120.376 165.852L120.426 165.835C121.439 165.531 122.41 165.204 123.386 164.859C124.361 164.515 125.323 164.15 126.274 163.769C127.226 163.387 128.164 162.982 129.092 162.564C130.02 162.145 130.931 161.706 131.835 161.254C141.26 156.57 149.538 149.869 156.083 141.625C162.022 134.146 166.331 125.506 168.734 116.261C170.934 107.798 171.426 98.9814 170.181 90.3261V90.3261ZM89.1966 78.1723L86.0618 64.5837L90.3641 63.5067C91.3314 63.2636 92.2313 63.0678 93.0636 62.9193C93.896 62.7707 94.6687 62.6683 95.3818 62.6121C96.0249 62.5576 96.6711 62.5497 97.3153 62.5884C97.8415 62.6159 98.3631 62.7008 98.8709 62.8416C99.3175 62.9693 99.7444 63.1579 100.14 63.4021C100.531 63.651 100.885 63.9533 101.192 64.3001C101.524 64.6749 101.808 65.0887 102.039 65.5324C102.301 66.0385 102.514 66.5687 102.674 67.1157C102.86 67.7123 102.991 68.3248 103.065 68.9455C103.131 69.4916 103.131 70.0436 103.065 70.5897C103.001 71.088 102.862 71.5739 102.654 72.0313C102.445 72.4816 102.168 72.8972 101.834 73.2635C101.461 73.661 101.047 74.0175 100.599 74.327C100.073 74.6901 99.5186 75.0107 98.9418 75.2858C98.2675 75.6102 97.5745 75.8943 96.8665 76.1365C96.1039 76.3999 95.2738 76.6463 94.3762 76.8692L89.1966 78.1723ZM114.275 99.5124C114.229 100.205 114.084 100.887 113.843 101.538C113.614 102.148 113.29 102.718 112.881 103.226C112.424 103.788 111.892 104.285 111.302 104.705C110.586 105.223 109.825 105.675 109.028 106.055C108.06 106.522 107.065 106.929 106.048 107.274C104.941 107.659 103.719 108.019 102.38 108.354L96.4987 109.84L91.8083 89.4956L97.2377 88.1452C98.3917 87.8548 99.4794 87.6298 100.501 87.47C101.45 87.314 102.408 87.2148 103.369 87.1729C104.2 87.1346 105.033 87.1629 105.859 87.2573C106.58 87.3401 107.289 87.5008 107.975 87.7367C108.61 87.9602 109.21 88.2728 109.757 88.6651C110.328 89.0784 110.842 89.5654 111.285 90.1134C111.781 90.7274 112.21 91.3929 112.564 92.0985C113.361 93.717 113.907 95.4473 114.184 97.2301C114.295 97.9832 114.324 98.7463 114.268 99.5056L114.275 99.5124Z" fill="white"/>
<defs>
<linearGradient id="paint0_linear_1903_12514" x1="0" y1="0" x2="174.815" y2="188.611" gradientUnits="userSpaceOnUse">
<stop stop-color="#64CCC9"/>
<stop offset="1" stop-color="#00A3E0"/>
</linearGradient>
</defs>
</svg>
