<svg width="200" height="200" viewBox="0 0 200 200" fill="none" xmlns="http://www.w3.org/2000/svg">
<g clip-path="url(#clip0_652_1992)">
<path d="M48.3723 45.4075C45.0246 39.6165 47.0113 32.2113 52.8098 28.8677L100.056 1.62421C105.854 -1.71937 113.269 0.264852 116.616 6.0561C119.964 11.8474 117.977 19.2527 112.179 22.5963L64.933 49.84C59.1346 53.1832 51.7201 51.1988 48.3723 45.4075Z" fill="#37D5C7"/>
<path d="M81.7404 193.944C78.393 188.152 80.3791 180.748 86.1776 177.404L133.424 150.161C139.222 146.817 146.636 148.801 149.984 154.592C153.332 160.384 151.346 167.789 145.547 171.132L98.3009 198.376C92.5024 201.719 85.0885 199.735 81.7404 193.944Z" fill="#37D5C7"/>
<path d="M105.742 96.218C102.394 90.4267 104.38 83.0213 110.179 79.6781L175.798 41.8397C181.597 38.4961 189.011 40.4803 192.359 46.2718C195.706 52.0631 193.72 59.4685 187.922 62.8117L122.302 100.65C116.504 103.994 109.089 102.009 105.742 96.218Z" fill="#37D5C7"/>
<path d="M8.62623 152.217C5.27848 146.425 7.26519 139.02 13.0637 135.676L83.9323 94.8109C89.7309 91.467 97.1455 93.4514 100.493 99.2427C103.841 105.034 101.854 112.439 96.0556 115.783L25.1869 156.648C19.3885 159.991 11.974 158.008 8.62623 152.217Z" fill="#37D5C7"/>
<path d="M116.427 48.1082C113.079 42.3168 115.066 34.9115 120.864 31.5679L133.988 24.0003C139.787 20.6567 147.201 22.641 150.549 28.4322C153.897 34.2235 151.91 41.6287 146.112 44.9721L132.988 52.54C127.189 55.8839 119.775 53.8996 116.427 48.1082Z" fill="#37D5C7"/>
<path d="M155.233 151.565C151.885 145.773 153.872 138.368 159.67 135.025L172.794 127.457C178.593 124.114 186.007 126.097 189.355 131.888C192.703 137.68 190.716 145.085 184.917 148.429L171.793 155.996C165.995 159.34 158.58 157.356 155.233 151.565Z" fill="#37D5C7"/>
<path d="M45.1853 173.079C41.8376 167.289 43.8243 159.883 49.6228 156.539L62.7466 148.972C68.545 145.628 75.9596 147.613 79.3069 153.404C82.655 159.195 80.6682 166.601 74.8697 169.944L61.746 177.512C55.9476 180.855 48.533 178.871 45.1853 173.079Z" fill="#37D5C7"/>
<path d="M9.00075 68.1107C5.653 62.3194 7.6397 54.9147 13.4382 51.5708L26.562 44.0032C32.3605 40.6597 39.7749 42.6439 43.1227 48.4353C46.4705 54.2266 44.4838 61.632 38.6853 64.9753L25.5615 72.5432C19.763 75.8864 12.3485 73.902 9.00075 68.1107Z" fill="#37D5C7"/>
<path d="M8.81178 110.164C5.46403 104.373 7.45073 96.9684 13.2492 93.6245L94.6172 46.7051C100.416 43.3617 107.83 45.3462 111.178 51.1368C114.525 56.9282 112.539 64.3336 106.74 67.6775L25.3725 114.597C19.574 117.94 12.1595 115.956 8.81178 110.164Z" fill="#37D5C7"/>
<path d="M84.5571 150.375C81.2097 144.584 83.1965 137.179 88.9951 133.835L170.363 86.9154C176.161 83.5722 183.575 85.5566 186.923 91.3479C190.271 97.1385 188.284 104.544 182.486 107.888L101.118 154.807C95.3198 158.15 87.9052 156.166 84.5571 150.375Z" fill="#37D5C7"/>
</g>
<defs>
<clipPath id="clip0_652_1992">
<rect width="200" height="200" fill="white"/>
</clipPath>
</defs>
</svg>
